<svg xmlns="http://www.w3.org/2000/svg" width="121.262" height="153.358" viewBox="0 0 121.262 153.358">
  <g id="Grupo_3672" data-name="Grupo 3672" transform="translate(-383.796 -269.74)">
    <g id="Grupo_3668" data-name="Grupo 3668" transform="translate(384.683 299.214)">
      <path id="Caminho_2365" data-name="Caminho 2365" d="M396.214,364.841c1.137,2.813,2.677,5.873,5.556,6.827,2.544.843,5.416-.323,7.3-2.23a20.24,20.24,0,0,0,3.965-6.933,203.616,203.616,0,0,0,14.1-73.878,159.005,159.005,0,0,0-30.936-2.319c-6.45.22-6.131,1.475-7.251,7.738a129.073,129.073,0,0,0,7.266,70.8Z" transform="translate(-382.799 -286.237)" fill="none" stroke="#dd9788" stroke-linecap="round" stroke-linejoin="round" stroke-miterlimit="10" stroke-width="1.772"/>
      <path id="Caminho_2366" data-name="Caminho 2366" d="M402.647,332.89l-2.708,25.785s-18.849-1.444-14.644,4.6,40.295,10.8,32.252,2.234C415.4,363.222,406.7,359.2,406.7,359.2l.47-26.31" transform="translate(-384.683 -247.18)" fill="none" stroke="#dd9788" stroke-linecap="round" stroke-linejoin="round" stroke-miterlimit="10" stroke-width="1.772"/>
      <path id="Caminho_2367" data-name="Caminho 2367" d="M417.979,304.933c-.094,1.622-6.575,2.568-14.475,2.111s-14.231-2.142-14.137-3.764,6.575-2.568,14.475-2.111S418.072,303.311,417.979,304.933Z" transform="translate(-380.763 -273.833)" fill="none" stroke="#dd9788" stroke-linecap="round" stroke-linejoin="round" stroke-miterlimit="10" stroke-width="1"/>
      <path id="Caminho_2368" data-name="Caminho 2368" d="M389.366,302.265s.639,29.154,6.553,41.614a5.08,5.08,0,0,0,8.806.753c4.139-5.952,10.459-18.307,13.255-40.714" transform="translate(-380.762 -272.818)" fill="none" stroke="#dd9788" stroke-linecap="round" stroke-linejoin="round" stroke-miterlimit="10" stroke-width="1"/>
    </g>
    <g id="Grupo_3669" data-name="Grupo 3669" transform="translate(436.449 293.204)">
      <path id="Caminho_2369" data-name="Caminho 2369" d="M446.107,365.2c2.078,2.21,4.621,4.507,7.65,4.354,2.677-.134,4.933-2.262,6-4.722a20.238,20.238,0,0,0,1.187-7.9,203.616,203.616,0,0,0-13.6-73.974A159.011,159.011,0,0,0,417.668,292c-5.934,2.541-5.181,3.594-3.959,9.838a129.089,129.089,0,0,0,32.4,63.364Z" transform="translate(-412.86 -282.965)" fill="none" stroke="#dd9788" stroke-linecap="round" stroke-linejoin="round" stroke-miterlimit="10" stroke-width="1.772"/>
      <path id="Caminho_2370" data-name="Caminho 2370" d="M437.6,331.186l6.809,25.017s-18.094,5.475-11.988,9.588,41.472-4.516,30.872-9.592c-2.829-1.354-12.392-1.955-12.392-1.955l-9.085-24.7" transform="translate(-397.538 -243.968)" fill="none" stroke="#dd9788" stroke-linecap="round" stroke-linejoin="round" stroke-miterlimit="10" stroke-width="1.772"/>
      <path id="Caminho_2371" data-name="Caminho 2371" d="M446.115,299.307c.5,1.547-5.2,4.773-12.73,7.207s-14.04,3.154-14.539,1.607,5.2-4.773,12.73-7.207S445.615,297.762,446.115,299.307Z" transform="translate(-407.874 -269.966)" fill="none" stroke="#dd9788" stroke-linecap="round" stroke-linejoin="round" stroke-miterlimit="10" stroke-width="1"/>
      <path id="Caminho_2372" data-name="Caminho 2372" d="M418.832,307.751S429.982,334.7,440,344.173a5.079,5.079,0,0,0,8.48-2.486c1.7-7.047,3.123-20.852-2.381-42.751" transform="translate(-407.86 -269.594)" fill="none" stroke="#dd9788" stroke-linecap="round" stroke-linejoin="round" stroke-miterlimit="10" stroke-width="1"/>
    </g>
    <path id="Caminho_2373" data-name="Caminho 2373" d="M395.462,279.508h.255" transform="translate(9.024 7.345)" fill="none" stroke="#dd9788" stroke-linecap="round" stroke-linejoin="round" stroke-miterlimit="10" stroke-width="1.772"/>
    <path id="Caminho_2374" data-name="Caminho 2374" d="M405.073,271.429l.255.255" transform="translate(17.07 0.581)" fill="none" stroke="#dd9788" stroke-linecap="round" stroke-linejoin="round" stroke-miterlimit="10" stroke-width="1.772"/>
    <path id="Caminho_2375" data-name="Caminho 2375" d="M405.981,279.926h0" transform="translate(17.698 7.694)" fill="none" stroke="#dd9788" stroke-linecap="round" stroke-linejoin="round" stroke-miterlimit="10" stroke-width="1.772"/>
    <path id="Caminho_2376" data-name="Caminho 2376" d="M416.568,279.91l-.5.52" transform="translate(26.273 7.681)" fill="none" stroke="#dd9788" stroke-linecap="round" stroke-linejoin="round" stroke-miterlimit="10" stroke-width="1.772"/>
    <path id="Caminho_2377" data-name="Caminho 2377" d="M416.063,270.735a1,1,0,0,0,.542.75" transform="translate(26.27 0)" fill="none" stroke="#dd9788" stroke-linecap="round" stroke-linejoin="round" stroke-miterlimit="10" stroke-width="1.772"/>
    <g id="Grupo_3670" data-name="Grupo 3670" transform="translate(453.728 274.826)">
      <path id="Caminho_2378" data-name="Caminho 2378" d="M424.1,272.962l2.3,10.255" transform="translate(-420.726 -272.962)" fill="none" stroke="#dd9788" stroke-linecap="round" stroke-linejoin="round" stroke-miterlimit="10" stroke-width="1"/>
      <path id="Caminho_2379" data-name="Caminho 2379" d="M422.265,276.364l9.215-2.03" transform="translate(-422.265 -271.813)" fill="none" stroke="#dd9788" stroke-linecap="round" stroke-linejoin="round" stroke-miterlimit="10" stroke-width="1"/>
    </g>
    <g id="Grupo_3671" data-name="Grupo 3671" transform="translate(396.724 271.055)">
      <path id="Caminho_2380" data-name="Caminho 2380" d="M392.578,270.909q.9,3.781,1.808,7.564" transform="translate(-390.114 -270.909)" fill="none" stroke="#dd9788" stroke-linecap="round" stroke-linejoin="round" stroke-miterlimit="10" stroke-width="1"/>
      <path id="Caminho_2381" data-name="Caminho 2381" d="M391.237,272.961h6.483" transform="translate(-391.237 -269.191)" fill="none" stroke="#dd9788" stroke-linecap="round" stroke-linejoin="round" stroke-miterlimit="10" stroke-width="1"/>
    </g>
  </g>
</svg>
