<svg xmlns="http://www.w3.org/2000/svg" xmlns:xlink="http://www.w3.org/1999/xlink" width="512" height="512" viewBox="0 0 512 512"><defs><clipPath id="b"><rect width="512" height="512"/></clipPath></defs><g id="a" clip-path="url(#b)"><g transform="translate(41.31 5.805)"><path d="M102.79,175.06c0,9.63-5.2,15.47-21.79,20.49l-.35.12c-18.66,5.79-20.85,11.69-20.85,15.65v17.01c0,4.49,2.72,5.02,7.38,5.02h1.48v.24H43.26v-.24h1.48c4.67,0,7.38-.47,7.38-5.02v-66.2c0-4.49-2.72-5.02-7.38-5.02H43.26v-.24H78.63C94.94,156.87,102.79,164.07,102.79,175.06Zm-7.62.06c0-11.04-5.61-17.83-16.48-17.83H59.86v51.43c2.13-6.91,12.58-10.92,20.67-13.4C91.81,191.89,95.11,184.86,95.17,175.12Z"/><path d="M126.29,189.94v38.32c0,4.55,2.72,5.08,7.38,5.08h1.48v.24h-24.8v-.24h1.48c4.67,0,7.38-.47,7.38-5.02V186.51c0-3.66-1-5.02-6.85-1.89v-.24l13.94-6.85v11.81c5.26-8.86,18.84-29.53,33.07-29.53a4.43,4.43,0,0,1,0,8.86C143.83,168.68,134.86,177.18,126.29,189.94Zm45.47,43.4v.24h-24.8v-.24h1.48c4.67,0,7.38-.47,7.38-5.02V186.51c0-3.66-1-5.02-6.85-1.89v-.24l13.94-6.85v49.78c0,5.44,3.24,6.09,8.85,6.03Z"/><path d="M218.26,218.64c0,10.69-11.04,14.94-20.67,14.94-6.91,0-14.29-2.07-18.19-5.73-3.43-3.13-4.37-8.27.12-12.76,2.6,8.92,8.86,18.13,18.07,18.13,7.74,0,13.58-4.25,13.58-12.11s-6.79-11.63-14.76-15.06c-7.91-3.43-16.65-7.68-16.65-15.94s9.21-12.52,17.24-12.52a25.936,25.936,0,0,1,11.28,2.13c4.07,1.77,6.2,6.26,2.24,9.74C208.93,183.97,205.5,178,197,178s-12.4,4.43-12.4,9.39,2.78,7.09,12.4,11.46C207.22,203.52,218.26,207.95,218.26,218.64Z"/><path d="M275.06,213.85l.47.12c-2.78,11.4-11.16,19.66-24.39,19.66-16.3,0-25.33-12.58-25.33-28.05s9.62-28.05,25.92-28.05c8.15,0,15,2.95,19.25,8.09,3.31,3.96,3.48,9.74-2.19,12.4-2.01-11.87-8.03-20.08-17.07-20.08-10.87,0-18.84,12.16-18.84,27.64s9.21,26.46,20.08,26.46C262.9,232.04,271.87,227.14,275.06,213.85Z"/><path d="M305.04,233.34v.24h-24.8v-.24h1.48c4.67,0,7.38-.47,7.38-5.02V186.51c0-3.66-1-5.02-6.85-1.89v-.24l13.94-6.85v49.78C296.18,232.75,299.43,233.4,305.04,233.34Zm-12.4-73.52a4.426,4.426,0,1,1-3.134,1.3,4.43,4.43,0,0,1,3.134-1.3Z"/><path d="M330.21,233.34h1.48v.24h-24.8v-.24h1.48c4.67,0,7.38-.47,7.38-5.02V165.84c0-3.66-1-5.02-6.85-1.89v-.24l13.94-6.85v71.51C322.83,232.87,325.54,233.4,330.21,233.34Z"/><path d="M386.14,226.08h.3a7.209,7.209,0,0,1-7.2,7.56c-3.84,0-7.74-1.54-7.74-8.15-3.6,3.07-9.98,8.15-17.36,8.15-7.79,0-17.3-2.72-17.3-11.75,0-11.06,9.96-14.19,22.14-19.6,5.08-2.19,12.11-5.26,12.52-11.99-.18-7.5-3.6-12.22-10.57-12.22-7.2,0-13.11,7.62-15.65,15.88-3.48-1.77-3.72-7.15-1.71-10.1,2.07-3.07,7.38-6.32,17.36-6.32,12.93,0,17.72,7.97,17.72,13.58v36.02c0,3.43,1,4.72,3.13,4.72C384.25,231.86,386.2,228.91,386.14,226.08Zm-27.58-23.15h-.06c-8.44,3.54-14.59,10.22-14.59,18.36,0,7.03,4.84,11.57,11.57,11.57,5.67,0,11.4-4.13,16-7.97V192.53c-1.65,5.68-8.09,8.25-12.92,10.4Z"/><path d="M191.95,324.85l.53.29c-5.37,10.69-15.18,17.72-29.47,17.72-22.32,0-33.25-17.18-33.25-38.38s11.75-38.38,34.01-38.38c11.16,0,19.96,4.07,25.81,11.1,4.49,5.37,3.66,13.58-2.42,16.36-2.78-16.24-11.04-26.87-23.38-26.87-14.88,0-25.16,16.59-25.16,37.79s11.99,36.26,26.87,36.26C176.48,340.73,186.29,336.25,191.95,324.85Z"/><path d="M252.11,323.08l.47.12c-2.78,11.4-11.16,19.66-24.39,19.66-16.3,0-25.33-12.58-25.33-28.05s9.03-28.05,25.33-28.05c12.81,0,21.14,7.79,24.15,18.6l-7.03,1.83c-5.55,1.48-13.29,3.48-18.96,4.96-6.61,1.77-11.22,5.02-12.99,9.27-1.24,2.89-1,6.2.59,9.57,3.72,6.38,9.57,10.28,16.06,10.28C239.88,341.27,248.92,336.36,252.11,323.08Zm-39.57,4.96a10.924,10.924,0,0,1,.47-6.73c1.77-4.37,6.5-7.74,13.23-9.51,5.67-1.48,13.46-3.54,18.96-4.96-1.95-11.52-8.09-19.66-17.01-19.66-10.87,0-18.25,12.16-18.25,27.64a33.508,33.508,0,0,0,2.6,13.22Z"/><path d="M280.63,342.56h1.48v.24h-24.8v-.24h1.48c4.67,0,7.38-.47,7.38-5.02V275.06c0-3.66-1-5.02-6.85-1.89v-.24l13.94-6.85v71.51C273.25,342.09,275.96,342.62,280.63,342.56Z"/><path d="M329.03,327.86c0,10.69-11.04,14.94-20.67,14.94-6.91,0-14.29-2.07-18.19-5.73-3.42-3.13-4.37-8.27.12-12.75,2.6,8.92,8.86,18.13,18.07,18.13,7.74,0,13.58-4.25,13.58-12.11s-6.79-11.63-14.76-15.06c-7.91-3.42-16.65-7.68-16.65-15.94s9.21-12.52,17.24-12.52a25.936,25.936,0,0,1,11.28,2.13c4.07,1.77,6.2,6.26,2.24,9.74-1.59-5.49-5.02-11.46-13.52-11.46s-12.4,4.43-12.4,9.39,2.78,7.09,12.4,11.46C317.99,312.74,329.03,317.17,329.03,327.86Z"/><path d="M387.22,314.81c0,15.47-9.04,28.05-25.33,28.05s-25.33-12.58-25.33-28.05,9.04-28.05,25.33-28.05C378.12,286.76,387.22,299.34,387.22,314.81Zm-7.09,0c0-15.47-7.38-27.64-18.25-27.64s-18.25,12.16-18.25,27.64,7.38,27.64,18.25,27.64S380.13,330.28,380.13,314.81Z"/><path d="M113.78,334.84h.38c-1.45,4.85-3.71,8.69-10.51,8.69-4.09,0-10.45-1.51-15.92-9.06-4.66,5.35-10.7,9-18.63,9-23.35,0-26.94-14.6-26.94-21.78,0-14.48,10.7-22.34,20.52-28.01-4.97-8.43-7.18-13.6-7.18-18.57,0-7.49,6.61-13.34,16.05-13.34,9,0,14.98,5.41,14.98,11.46,0,7.62-8.62,12.46-16.74,17.25,2.33,3.9,5.1,8.18,7.87,12.97,3.97,6.74,9.38,15.92,14.41,23.86,4.97-8.5,7.74-19.51,9.82-29.33a3,3,0,0,0-2.96-3.52H92.45v-.44h20.27v.44h-6.29a4.115,4.115,0,0,0-4.03,3.27.241.241,0,0,0-.06.19v.06c-1.83,8.5-4.66,20.33-10.07,29.83.44.63.82,1.32,1.26,1.95,7.62,11.77,10.95,12.71,13.34,12.71C112.08,342.45,113.66,334.84,113.78,334.84Zm-26.62-1.01c-.31-.44-.63-.94-.94-1.45-3.97-6.55-8.87-14.67-13.97-22.91-3.65-5.92-6.67-10.7-9.06-14.79-7.55,5.6-13.22,13.53-13.22,25.11,0,13.72,6.73,21.78,19.01,21.78a24.171,24.171,0,0,0,18.18-7.74ZM62.74,273.34c0,4.66,2.71,10.01,6.55,16.43,6.55-4.28,10.83-10.07,10.83-16.62,0-4.47-2.14-10.45-8.43-10.45C66.33,262.7,62.8,266.73,62.74,273.34Z" fill="#dd9788"/></g></g></svg>