<svg xmlns="http://www.w3.org/2000/svg" width="126.792" height="151.464" viewBox="0 0 126.792 151.464">
  <g id="Grupo_4131" data-name="Grupo 4131" transform="translate(-93.97 -200.131)">
    <path id="Caminho_3723" data-name="Caminho 3723" d="M132.817,222.882c.06.009.118.016.177.023Z" transform="translate(50.686 29.685)" fill="#9f9f63"/>
    <path id="Caminho_3724" data-name="Caminho 3724" d="M114.945,242.311a.142.142,0,0,1-.012-.028A.168.168,0,0,0,114.945,242.311Z" transform="translate(27.351 54.999)" fill="#9f9f63"/>
    <path id="Caminho_3725" data-name="Caminho 3725" d="M143.086,230.888c.018.042.035.085.053.127C143.093,230.9,143.086,230.888,143.086,230.888Z" transform="translate(64.085 40.131)" fill="#9f9f63"/>
    <path id="Caminho_3726" data-name="Caminho 3726" d="M116.5,244.947l-.028-.035Z" transform="translate(29.361 58.429)" fill="#9f9f63"/>
    <path id="Caminho_3727" data-name="Caminho 3727" d="M210.884,259.54c-6.121-13.9-16.839-19.948-30.9-20.833,2.429-2.229,13.294-12.3,10.913-14.741.922-2.713-13.939-13.923-16.578-16.05a1.129,1.129,0,0,0-1.348-.2,1.556,1.556,0,0,0-1.565.387c-1.422,1.364-2.8,2.759-4.218,4.123a111.164,111.164,0,0,0-12.1,13.335,1.862,1.862,0,0,0-.678,3.065,105.317,105.317,0,0,0,15.126,10.411c-12.407,1.6-23.14,10.242-28.7,21.852C98.577,252.9,75.561,307.966,112.385,331c19.249,12.015,48.529,7.14,56.543-19.277C200.874,318.994,224.7,291.081,210.884,259.54Zm-42.4-31.661c3.722-.41,5.926-.82,9.438-1.215-.876,3.464-1.583,6.963-2.641,10.376C173.076,233.584,171.539,232.242,168.483,227.879Zm5.248-15.675c1.256,4.8,2.524,7.242,3.828,11.807-3.208.415-6.38,1.028-9.581,1.5C169.912,221.083,171.774,216.625,173.731,212.2Zm3.418,25.376c1.083-3.651,1.729-7.41,2.678-11.1a33.224,33.224,0,0,1,6.967-.016C185.165,228.893,183.812,231.314,177.149,237.58Zm10.694-13.547a27.448,27.448,0,0,0-8.4-.235c-1.159-4.335-2.952-7.811-4.075-12.008A80.476,80.476,0,0,1,187.843,224.033Zm-16.707-11.118c-1.823,4.25-3.556,8.539-5.246,12.84a31.619,31.619,0,0,1-7.64-.055C162.5,220.511,166.178,217.644,171.135,212.915ZM159.741,228.1a31.891,31.891,0,0,0,6.656.012c2.452,3.651,4.229,5.545,7.032,9.717A142.219,142.219,0,0,1,159.741,228.1Zm5.419,54.992c0-.009-.007-.018-.009-.025.09.219.021.051.1.247-.009-.016-.016-.035-.025-.051a40.736,40.736,0,0,1,2.056,24.138c-17.539-4.6-33.451-20.6-24.753-43.009C153.615,268.266,160.4,272.011,165.159,283.088Zm-55.268,42.79c2.427,1.706-10.512-5.536-12.976-22.688,0,.032,0-.018,0-.009-.041-.295-.065-.463-.021-.168A35.243,35.243,0,0,1,99.4,284.66a36.92,36.92,0,0,1,40.359-21.384c-9.456,23.635,7.131,42.083,26.539,47.741C158.443,335.219,129.447,340.769,109.891,325.878Zm59.954-17.885a42.422,42.422,0,0,0-8.438-34.986c-6.843-8.359-15.193-10.026-17.62-11.439,5.7-11.363,16.622-19.558,29.022-19.929,2.692,2.611,24.26-4.315,34.5,19.994a45.593,45.593,0,0,1,2.786,10.238C213.4,298.295,191.945,312.455,169.845,307.993Z" transform="translate(0 9.709)" fill="#9f9f63"/>
    <path id="Caminho_3728" data-name="Caminho 3728" d="M123.058,256.9l-.028.035Z" transform="translate(37.916 74.077)" fill="#9f9f63"/>
    <path id="Caminho_3729" data-name="Caminho 3729" d="M95.261,249.16c0-.06-.014-.118-.021-.177C95.24,249,95.258,249.146,95.261,249.16Z" transform="translate(1.657 63.74)" fill="#9f9f63"/>
    <path id="Caminho_3730" data-name="Caminho 3730" d="M100.968,258.97a.4.4,0,0,1-.032-.025A.245.245,0,0,0,100.968,258.97Z" transform="translate(9.089 76.739)" fill="#9f9f63"/>
    <path id="Caminho_3731" data-name="Caminho 3731" d="M124.858,240.337c.021.058.044.115.069.168C124.867,240.355,124.881,240.39,124.858,240.337Z" transform="translate(40.301 52.46)" fill="#9f9f63"/>
    <path id="Caminho_3732" data-name="Caminho 3732" d="M133.486,216.963a.331.331,0,0,0,.023-.03C133.4,217.067,133.371,217.108,133.486,216.963Z" transform="translate(51.464 21.923)" fill="#9f9f63"/>
    <path id="Caminho_3733" data-name="Caminho 3733" d="M119.272,213.046a43.844,43.844,0,0,1,5.013-7.013,1.136,1.136,0,1,0-1.6-1.611,40.335,40.335,0,0,0-5.241,7.553A1.06,1.06,0,0,0,119.272,213.046Z" transform="translate(30.42 5.131)" fill="#9f9f63"/>
    <path id="Caminho_3734" data-name="Caminho 3734" d="M122.993,209.831a16.406,16.406,0,0,1,2.448-2.385c2.9-2.113,4.656-2.088,3.911-3.471-1.192-1.906-6.244,2.846-7.677,4.54a.931.931,0,1,0,1.318,1.316Z" transform="translate(35.8 4.437)" fill="#9f9f63"/>
    <path id="Caminho_3735" data-name="Caminho 3735" d="M131.533,202.265a20.567,20.567,0,0,1,4.658.028,1,1,0,1,0,.53-1.924,19.832,19.832,0,0,0-9.931,1,.984.984,0,0,0-.673,1.2C126.476,203.888,127.887,202.768,131.533,202.265Z" transform="translate(41.894 0)" fill="#9f9f63"/>
    <path id="Caminho_3736" data-name="Caminho 3736" d="M128.916,204.746c0,1.1,1,1.019,2.03,1.143a12.483,12.483,0,0,1,5.352,2.2,1.067,1.067,0,0,0,1.563-1.2c-.184-.615-1.682-1.424-2.256-1.724C133.784,204.2,128.916,202.66,128.916,204.746Z" transform="translate(45.596 4.667)" fill="#9f9f63"/>
    <path id="Caminho_3737" data-name="Caminho 3737" d="M138.04,207.957c.731.947,1.431,1.924,2.123,2.9a1,1,0,0,0,1.733-1,54.166,54.166,0,0,0-5.278-6.481.958.958,0,0,0-1.355,1.355C137.065,206.678,138.19,208.167,138.04,207.957Z" transform="translate(53.498 3.843)" fill="#9f9f63"/>
    <path id="Caminho_3738" data-name="Caminho 3738" d="M119.294,214.4c.931.254,1.222-.431,1.551-1.228a6.023,6.023,0,0,1,1.489-2.051,1.118,1.118,0,0,0-.786-1.908C120.082,209.211,117.095,213.8,119.294,214.4Z" transform="translate(32.021 11.848)" fill="#9f9f63"/>
    <path id="Caminho_3739" data-name="Caminho 3739" d="M98.931,238.779a31.664,31.664,0,0,1,2.438-2.143,35.458,35.458,0,0,1,16.6-6.859l-.039,0c1.968-.3,1.127-2.3-.1-1.957a36.561,36.561,0,0,0-20.158,9.694.891.891,0,0,0,1.261,1.261Z" transform="translate(4.493 36.082)" fill="#9f9f63"/>
    <path id="Caminho_3740" data-name="Caminho 3740" d="M114.945,231.374a22.066,22.066,0,0,1,4.5-4.635,45.253,45.253,0,0,1,5.089-3.289,1.053,1.053,0,0,0-.528-1.964c-1.09,0-6.977,3.715-10.646,8.956A.918.918,0,1,0,114.945,231.374Z" transform="translate(25.097 27.864)" fill="#9f9f63"/>
    <path id="Caminho_3741" data-name="Caminho 3741" d="M115.927,223.785l-.028.021C115.8,223.877,115.964,223.755,115.927,223.785Z" transform="translate(28.572 30.857)" fill="#9f9f63"/>
    <path id="Caminho_3742" data-name="Caminho 3742" d="M140.827,222.645c4.259,1.848,7.115,5.052,9.811,8.869a1.177,1.177,0,1,0,2.028-1.194c-3.208-4.616-6.836-8.025-12.139-9.922a1.014,1.014,0,0,0-1.233.7C139.027,222.09,139.926,222.288,140.827,222.645Z" transform="translate(59.075 26.386)" fill="#9f9f63"/>
    <path id="Caminho_3743" data-name="Caminho 3743" d="M152.459,237.786a.934.934,0,0,0-1.8.493c.212.88.39,1.768.519,2.664l-.007-.039c.871,6.9-1.249,12.72-5.336,18.461a1.023,1.023,0,0,0,1.157,1.5c.945-.251,3.379-4.812,3.8-5.7a24.765,24.765,0,0,0,2.5-11.058A26.671,26.671,0,0,0,152.459,237.786Z" transform="translate(67.47 48.235)" fill="#9f9f63"/>
    <path id="Caminho_3744" data-name="Caminho 3744" d="M143.59,255.13a28.937,28.937,0,0,1-7.477.551c-4.918-.141-6.9-.94-6.9.634a.954.954,0,0,0,.947.938c2.427.12,15.426,1.392,14.6-1.459A.965.965,0,0,0,143.59,255.13Z" transform="translate(45.986 71.727)" fill="#9f9f63"/>
    <path id="Caminho_3745" data-name="Caminho 3745" d="M137.521,257.426a17.493,17.493,0,0,1-6.207-.048.949.949,0,1,0-.5,1.83c2.261.44,8.525,1.155,7.97-1.072A1.03,1.03,0,0,0,137.521,257.426Z" transform="translate(47.136 74.658)" fill="#9f9f63"/>
    <path id="Caminho_3746" data-name="Caminho 3746" d="M111.478,270.541a22.17,22.17,0,0,1-3.713-1.143l.018.007a21.975,21.975,0,0,1-4.946-2.918l.021.021a33.17,33.17,0,0,1-5.421-5.515c-.205-.258-.4-.523-.608-.8a.832.832,0,0,0-.454-.35.733.733,0,0,0-.189-.023.866.866,0,0,0-.4.1.8.8,0,0,0-.35.454.713.713,0,0,0,.085.588,33.746,33.746,0,0,0,6.539,6.861,25.053,25.053,0,0,0,4.264,2.653,22.556,22.556,0,0,0,4.72,1.639.839.839,0,0,0,1-.569A.825.825,0,0,0,111.478,270.541Z" transform="translate(1.879 77.882)" fill="#9f9f63"/>
    <path id="Caminho_3747" data-name="Caminho 3747" d="M127.5,263.226s-3.33,1.742-4.757,2.355c.012-.007.025-.012.037-.018a29.173,29.173,0,0,1-7.246,2.044c-1.065.129-2.773-.041-2.773.931a.734.734,0,0,0,.74.731,30.723,30.723,0,0,0,14.377-4.681A.731.731,0,0,0,127.5,263.226Z" transform="translate(24.515 82.325)" fill="#9f9f63"/>
    <path id="Caminho_3748" data-name="Caminho 3748" d="M123.84,263.443a9.9,9.9,0,0,1-3.9,2.955,1.3,1.3,0,0,0-.738.456.755.755,0,0,0,.265,1.023c.991.583,6.7-3.109,5.458-4.434A.781.781,0,0,0,123.84,263.443Z" transform="translate(32.794 82.32)" fill="#9f9f63"/>
  </g>
</svg>
