<svg xmlns="http://www.w3.org/2000/svg" xmlns:xlink="http://www.w3.org/1999/xlink" width="1920" height="1080" viewBox="0 0 1920 1080"><defs><clipPath id="a"><rect width="1940" height="1080"/></clipPath><clipPath id="d"><rect width="1920" height="1080"/></clipPath></defs><g id="c" clip-path="url(#d)"><g transform="translate(264.506 -0.405)"><g transform="translate(0.494 0.405)"><path d="M623.261,403.4c2.77-15.315,1.567-31.553-4.85-45.86a78.069,78.069,0,0,0-28.13-33.054,69.061,69.061,0,0,0-12.739-6.627,12.845,12.845,0,0,1-1.062,3.812c-.2.452-.413.893-.625,1.338,19.2,7.719,34.621,24.971,40.5,44.652,9.615,32.191-5.422,67.571-29.7,89.37-25.111,22.547-59.682,32.731-93.008,34.349q-5.456.266-10.963.19a128.288,128.288,0,0,0-11.924-41.782,119.731,119.731,0,0,0-28.218-36.606C418.992,392.3,389,379.883,359,371.133c-.931-.272-1.866-.525-2.8-.789-3.408-37.082,3.758-74.194,10.224-110.588,3.126-17.594,6.727-35.371,7.317-53.272.494-14.971-1.536-30.77-10.074-43.512-16.724-24.96-51.509-26.558-76.424-13.559-24.233,12.645-37.112,38.273-43.019,64.189-9.44-6.582-19.652-12.028-30.82-15.118-14.919-4.125-31.558-3.574-45.534,3.382-14.4,7.166-23.553,21.332-26.348,36.8-6.2,34.3,17.687,64.328,44.479,82.905,29.808,20.669,65.4,30.5,100.48,38.325,21.563,4.811,43.325,8.958,64.631,14.707,2.919,26.435,11.135,52.766,27.01,74.3a110.824,110.824,0,0,0,36.745,31.927c15.557,8.361,32.976,13.15,50.522,15.086q6.1.671,12.287.936a171.634,171.634,0,0,1-1.717,41.322c-5.471,34.23-19.7,68.453-45.971,92.172-24.084,21.747-59.794,32.894-91.533,22.909-30.243-9.514-51.865-34.928-78.106-51.292-11.1-6.926-23.165-12-36.142-13.65a2.636,2.636,0,0,1,.162.573,6.373,6.373,0,0,1-1.278,4.651c29.734,3.308,52.6,26.675,75.436,43.633,12.4,9.2,25.653,17.615,40.653,21.938,15.56,4.484,32.222,4.1,47.856.177,33.286-8.348,59.394-32.424,75.227-61.971a185.569,185.569,0,0,0,21.052-99.135c-.028-.394-.079-.785-.109-1.181,28.05.387,56.628-5.511,81.361-18.327C594.041,463.409,617.306,436.321,623.261,403.4Zm-365.738-56.2c-33.629-9.354-67.969-23.691-91.49-50.247-10.771-12.16-18.963-27.35-19.938-43.726-.924-15.5,4.474-32.243,17.159-42.066,12.339-9.557,29-11.553,44.035-8.554,13.115,2.614,24.971,9.01,35.729,16.8-.765,4.045-1.368,8.074-1.826,12.039-1.735,15.064-3.727,34.881,9.517,45.72,5.514,4.513,13.2,7.036,20.185,4.573,6.779-2.389,11.042-8.766,12.265-15.585,3.041-16.958-11.323-29.761-22.887-39.862-3.62-3.161-7.36-6.247-11.229-9.17.376-1.784.767-3.563,1.208-5.332,4-16.065,10.926-31.719,22.26-44.068a64.432,64.432,0,0,1,37.772-20.305c13.438-2.043,28.144-.041,39.181,8.3,26.728,20.206,18.966,59.884,14.214,87.991-6.517,38.543-15.271,77.34-13.657,116.659.116,2.8.306,5.615.535,8.428C319.8,360.56,288.208,355.729,257.524,347.195Zm-9.615-124.1q3.257,2.556,6.384,5.215c11.013,9.38,27.777,22.537,23,38.974-2,6.874-8.225,11.291-15.47,9.617-7.692-1.78-12.77-8.376-14.834-15.585-2.285-7.979-1.612-16.677-.845-24.829Q246.768,229.761,247.909,223.091ZM394.82,459.731c-22.865-21.788-34.243-52.861-38.008-83.534,9.451,2.7,18.8,5.743,27.988,9.364,28.97,11.419,56.818,28.375,74.217,54.654,10.251,15.484,15.883,33.073,18.1,51.2C447,490.06,416.853,480.728,394.82,459.731Z" transform="translate(306.483 163.855)" fill="#dd7c79"/><g transform="translate(-285)"><g clip-path="url(#a)"><path d="M80.436,314.579s20.5,32.439,25.436,78-10.552,97.158-10.552,97.158S22.587,434.8,32.989,397.149,80.436,314.579,80.436,314.579Z" transform="translate(342.497 365.146)" fill="#52433a"/><path d="M-70.4,412.847S117.015,424.3,220.59,404.486s107.4-20.18,119.177-27.611,90.86-42.61,116.716-52.128,48.643-11.269,77.386-19.235,68.393-28.39,81.479-29.592,18.423,20.82,1.9,36.4-22.787,17.823-65.471,34.507-40.445,24.528-40.445,24.528,35.406,14.532,49.451,18.595,43.075-5.8,43.075-5.8,7.586-8.945,16.055-11.036,9.416,2.262,9.416,2.262,39.92-11.209,44.951-15.9c0,0-.126-23.555,8.873-30.018s18.253-9.325,23.379-9.075,8.086,17.858,8.086,17.858,17.24-17.648,24.911-21.451,19.769-3.665,19.769-3.665,8.408-10.965,20.424-11.265,25.149,6.651,25.378,9.278-11.852,15.486-24.092,28.578-35,42.6-39.751,48.278-16.923,14.048-21.014,16.368c0,0-4.675,31.332-6.013,39.547s-11.675,15.968-20.416,20.671-31.375,13.345-35.294,18.368-4.05,10.476-19.133,17.89-70.646,18.72-96.983,22.47-67.522-2.3-98.859.43-80.958-13.648-146.507-5.254S-20.477,577.414-20.477,577.414Z" transform="translate(165.301 320.161)" fill="#f7e8e0"/><path d="M208.059,342.561c.21.309.415.675.27.99a1.29,1.29,0,0,1-.56.543c-3.274,2-7.909,2.247-11.8,1.155a20.648,20.648,0,0,1-9.5-6.052,46.21,46.21,0,0,1-5.871-8.623A27.441,27.441,0,0,0,194.4,322Q201.24,332.287,208.059,342.561Z" transform="translate(599.745 373.766)" fill="#eebfa6"/><path d="M223.05,297.67a69.623,69.623,0,0,1,6.557,25.384,13.519,13.519,0,0,1-4.724-.768c-2.583-.755-5.232-1.626-7.141-3.2-2.3-1.911-3.239-4.588-4.064-7.142q-1.413-4.213-2.786-8.435a.875.875,0,0,1-.063-.493c.087-.34.549-.5.953-.634A61.4,61.4,0,0,0,223.05,297.67Z" transform="translate(652.058 345.494)" fill="#eebfa6"/><path d="M264.176,294.146a2.245,2.245,0,0,1-.5,1.224,107.887,107.887,0,0,1-17.2,19.7,7.106,7.106,0,0,1-4.195-7.751c.53-3,2.575-5.691,4.7-8.234,2.974-3.585,6.56-7.31,11.789-8.448a2.646,2.646,0,0,1,1.335-.045c.647.208.929.781,1.365,1.187C262.338,292.637,264.083,293.059,264.176,294.146Z" transform="translate(706.363 337.191)" fill="#eebfa6"/><g transform="translate(468.34 734.646)"><path d="M67.713,395.27q-.074,0-.147-.006c-.748-.063-1.292-.595-1.213-1.189a243.982,243.982,0,0,0,1.327-52.939,1.2,1.2,0,0,1,1.273-1.15,1.284,1.284,0,0,1,1.453,1.008A245.851,245.851,0,0,1,69.067,394.3,1.287,1.287,0,0,1,67.713,395.27Z" transform="translate(-66.345 -339.98)" fill="#483026"/></g><g transform="translate(557.078 726.762)"><path d="M196.376,402.622a1.45,1.45,0,0,1-1.207-.573c-9.236-13.719-20.93-29.445-37.618-42.074-17.2-13.014-37.591-20.638-57.417-21.473a1.211,1.211,0,0,1-1.292-1.135,1.252,1.252,0,0,1,1.436-1.023c20.479.858,41.491,8.7,59.16,22.067,16.97,12.839,28.806,28.749,38.145,42.619a.98.98,0,0,1-.563,1.464A1.641,1.641,0,0,1,196.376,402.622Z" transform="translate(-98.839 -336.333)" fill="#483026"/></g><g transform="translate(659.011 731.633)"><path d="M137.531,420.289c-.049,0-.1,0-.15-.007-.751-.065-1.292-.6-1.207-1.194a60.858,60.858,0,0,1,10.265-25.9,141.68,141.68,0,0,1,11.628-14.08l36.1-40.07a1.618,1.618,0,0,1,1.906-.253.946.946,0,0,1,.32,1.507l-36.1,40.063a140.137,140.137,0,0,0-11.462,13.866,58.963,58.963,0,0,0-9.949,25.1A1.292,1.292,0,0,1,137.531,420.289Z" transform="translate(-136.165 -338.586)" fill="#483026"/></g><g transform="translate(638.644 680.63)"><path d="M166.7,326.964a1.66,1.66,0,0,1-.617-.119c-12.42-5-36.1-9.674-36.34-9.719-.732-.143-1.18-.731-1-1.308a1.419,1.419,0,0,1,1.652-.789c.983.192,24.223,4.781,36.922,9.892a.986.986,0,0,1,.6,1.453A1.438,1.438,0,0,1,166.7,326.964Z" transform="translate(-128.707 -314.998)" fill="#483026"/></g><g transform="translate(644.732 662.601)"><path d="M155.364,324.546a1.457,1.457,0,0,1-1.2-.56,30.181,30.181,0,0,0-5.869-6.264c-4.727-3.805-10.793-6.463-16.659-9.036a.974.974,0,0,1-.533-1.47,1.571,1.571,0,0,1,1.857-.422c6.035,2.646,12.278,5.382,17.281,9.412a32.516,32.516,0,0,1,6.314,6.737.975.975,0,0,1-.538,1.468A1.657,1.657,0,0,1,155.364,324.546Z" transform="translate(-130.936 -306.66)" fill="#483026"/></g><g transform="translate(93.541 594.947)"><path d="M-19.608,579.074a1.345,1.345,0,0,1-1.322-.815c-.186-.58.257-1.168.989-1.312,2.521-.506,252.778-50.647,317.634-58.952,40.376-5.174,74.78-.986,102.425,2.376,17.273,2.1,32.189,3.92,44.15,2.871,15.053-1.31,32.348-.612,49.077.063,18.543.752,36.062,1.457,49.692-.484,25.356-3.611,81.258-14.828,96.5-22.325,11.32-5.563,13.859-9.816,16.317-13.931a33.88,33.88,0,0,1,2.373-3.609c2.824-3.622,14.042-8.683,23.939-13.148,4.6-2.076,8.947-4.037,11.748-5.544,4.266-2.3,18.3-10.515,19.829-19.916,1.322-8.115,5.964-39.222,6.011-39.534a1.069,1.069,0,0,1,.563-.752c4.1-2.324,16.077-10.6,20.673-16.087,1.267-1.514,3.818-4.729,7.111-8.874,8.856-11.155,23.682-29.825,32.681-39.451l.743-.791c10.336-11.058,23.2-24.818,23.084-27.073-.175-1.626-11.874-8.573-23.972-8.266-11.123.279-19.223,10.642-19.3,10.746a1.622,1.622,0,0,1-1.185.519c-.115,0-11.789-.087-19.026,3.5-7.379,3.656-24.387,21.021-24.556,21.2a1.572,1.572,0,0,1-1.434.383,1.207,1.207,0,0,1-1-.9c-1.5-8.91-4.684-16.815-6.816-16.919-4.593-.223-13.521,2.435-22.38,8.8-8.449,6.069-8.428,28.982-8.425,29.213a.964.964,0,0,1-.325.7c-5.123,4.778-41.414,15.066-45.535,16.223a1.689,1.689,0,0,1-1.144-.086,1.109,1.109,0,0,1-.655-.75,2.52,2.52,0,0,0-1.428-1.468c-1.36-.638-3.517-.618-6.237.054-7.9,1.955-15.255,10.521-15.326,10.608a1.359,1.359,0,0,1-.6.391c-1.207.406-29.7,9.983-44.082,5.821-13.966-4.041-48.162-18.059-49.61-18.651a1.168,1.168,0,0,1-.7-.722c-.254-.889-1.251-9.153,41.171-25.735l2.873-1.124c40.046-15.646,46.2-18.052,62.155-33.11,10.754-10.147,12.21-23.52,7.4-30.584a8.7,8.7,0,0,0-8.1-4.05c-6.415.586-19.769,6.1-35.234,12.489-14.883,6.147-31.752,13.114-45.95,17.047-11.882,3.293-22.718,5.524-33.2,7.68-14.894,3.064-28.961,5.957-44.063,11.516-26.738,9.844-105.091,44.829-116.443,51.994-11.232,7.09-14.58,7.73-100.4,24.128l-19.307,3.691c-102.6,19.628-289.541,8.5-291.417,8.387a1.2,1.2,0,0,1-1.256-1.159,1.258,1.258,0,0,1,1.467-.995c1.873.11,188.389,11.213,290.565-8.335l19.31-3.691c85.251-16.288,88.58-16.924,99.337-23.715,11.434-7.217,90.158-42.388,116.992-52.265,15.329-5.643,29.513-8.56,44.527-11.65,10.427-2.145,21.208-4.363,32.984-7.626,14.012-3.883,30.788-10.811,45.59-16.924,15.705-6.484,29.267-12.087,36.182-12.722a11.383,11.383,0,0,1,10.82,5.174c5.241,7.7,3.785,22.15-7.715,33-16.323,15.406-22.546,17.836-63.037,33.657l-2.873,1.124c-34.633,13.537-39.066,21.06-39.623,22.926,5.328,2.173,35.854,14.556,48.493,18.214,12.562,3.641,38.364-4.562,41.709-5.658,1.39-1.574,8.471-9.2,16.544-11.2,3.572-.88,6.437-.824,8.518.186a5.239,5.239,0,0,1,2.1,1.738c11.535-3.28,37.981-11.287,42.8-14.96.027-3.375.563-24.1,9.321-30.39,9.5-6.82,19.116-9.6,24.381-9.354,4.938.24,7.72,10.558,8.889,16.29,4.782-4.763,16.989-16.595,23.3-19.724,6.876-3.41,16.891-3.79,19.745-3.829,1.9-2.264,9.921-10.984,21.132-11.267,11.874-.288,26.46,6.577,26.785,10.283.229,2.677-7.39,11.146-23.614,28.5l-.74.794c-8.938,9.559-23.729,28.184-32.566,39.315-3.31,4.167-5.874,7.4-7.15,8.917-4.82,5.756-16.511,13.793-20.867,16.363-.59,3.94-4.711,31.512-5.945,39.088-1.63,10.015-15.23,18.323-21,21.427-2.895,1.559-7.283,3.54-11.934,5.639-9.138,4.121-20.509,9.252-22.967,12.4a32.421,32.421,0,0,0-2.228,3.4c-2.5,4.195-5.342,8.945-17.347,14.843-15.522,7.63-71.921,18.98-97.46,22.617-13.939,1.983-31.6,1.269-50.314.515-16.62-.672-33.806-1.367-48.637-.074-12.314,1.072-27.4-.763-44.863-2.885-27.457-3.336-61.626-7.49-101.576-2.38-64.742,8.29-314.881,58.41-317.4,58.913A1.676,1.676,0,0,1-19.608,579.074Z" transform="translate(70.898 -275.37)" fill="#483026"/></g><g transform="translate(735.347 703.233)"><path d="M165.484,411.264a1.481,1.481,0,0,1-1.163-.512.964.964,0,0,1,.445-1.49c7.5-3.671,33.882-9.821,39.147-11.029,1.2-6.3,9.747-17.163,11.751-19.646-1.737-3.114-10.6-19.086-15.2-28.87-5.183-11.021-3.943-22.787-3.889-23.283a1.332,1.332,0,0,1,1.48-.982c.751.052,1.305.577,1.24,1.172-.014.117-1.234,11.79,3.73,22.338,5.063,10.763,15.331,29.1,15.432,29.283a.892.892,0,0,1-.107,1.031c-.112.136-11.221,13.637-11.83,19.879a1.173,1.173,0,0,1-.986.956c-.314.071-31.485,7.146-39.339,10.99A1.589,1.589,0,0,1,165.484,411.264Z" transform="translate(-164.117 -325.451)" fill="#483026"/></g><g transform="translate(727.569 778.489)"><path d="M162.634,388.47a1.7,1.7,0,0,1-.59-.106.993.993,0,0,1-.639-1.442c.076-.13,7.794-12.98,10.055-25.735a1.349,1.349,0,0,1,1.54-.921c.745.082,1.267.629,1.163,1.219-2.321,13.1-9.97,25.834-10.3,26.368A1.424,1.424,0,0,1,162.634,388.47Z" transform="translate(-161.269 -360.257)" fill="#483026"/></g><g transform="translate(775.028 775.775)"><path d="M188.545,368.767a1.545,1.545,0,0,1-1.021-.363l-8.531-7.6a.933.933,0,0,1,.115-1.527,1.631,1.631,0,0,1,1.928.091l8.531,7.6a.934.934,0,0,1-.115,1.527A1.591,1.591,0,0,1,188.545,368.767Z" transform="translate(-178.648 -359.001)" fill="#483026"/></g><g transform="translate(787.075 755.386)"><path d="M189.514,353a1.783,1.783,0,0,1-.41-.048l-5.088-1.261a1.06,1.06,0,0,1-.9-1.356,1.449,1.449,0,0,1,1.71-.709l5.088,1.261a1.06,1.06,0,0,1,.9,1.356A1.369,1.369,0,0,1,189.514,353Z" transform="translate(-183.059 -349.572)" fill="#483026"/></g><g transform="translate(793.273 694.454)"><path d="M215.888,431.12a1.7,1.7,0,0,1-.344-.035c-.729-.151-1.166-.742-.978-1.319,6.95-21.17,13.783-44.98,12.751-47.411-1.349-3.183-8.764-13.563-20.875-29.235-8.78-11.354-20.842-29.968-20.962-30.156a.985.985,0,0,1,.593-1.455,1.554,1.554,0,0,1,1.838.471c.12.186,12.136,18.729,20.861,30.013,8.643,11.181,19.327,25.4,21.137,29.674,1.756,4.141-10.271,41.246-12.7,48.643A1.352,1.352,0,0,1,215.888,431.12Z" transform="translate(-185.329 -321.391)" fill="#483026"/></g><g transform="translate(829.821 678.554)"><path d="M200.078,383.127a1.788,1.788,0,0,1-.4-.045,1.064,1.064,0,0,1-.907-1.351c.117-.309,11.967-30.98,13.829-38.641,1.882-7.73-5.358-27.469-5.432-27.667a1.067,1.067,0,0,1,.926-1.341,1.452,1.452,0,0,1,1.7.733c.306.832,7.5,20.446,5.495,28.686-1.892,7.773-13.414,37.6-13.9,38.866A1.371,1.371,0,0,1,200.078,383.127Z" transform="translate(-198.712 -314.038)" fill="#483026"/></g><g transform="translate(878.56 657.316)"><path d="M223.552,372.5a1.455,1.455,0,0,1-.164-.009c-.748-.069-1.283-.608-1.2-1.2.279-1.849.563-3.641.838-5.379,1.652-10.376,2.958-18.571.868-27.218-2.466-10.208-7.272-32.989-7.322-33.218-.123-.588.38-1.144,1.122-1.243a1.367,1.367,0,0,1,1.573.889c.049.227,4.85,22.986,7.311,33.168,2.168,8.982.776,17.745-.841,27.892-.276,1.734-.56,3.52-.836,5.362A1.291,1.291,0,0,1,223.552,372.5Z" transform="translate(-216.559 -304.215)" fill="#483026"/></g><g transform="translate(881.337 632.198)"><path d="M218.942,332.834a1.518,1.518,0,0,1-1.06-.4.936.936,0,0,1,.2-1.52c.156-.1,15.686-10.145,22.309-17.691,6.762-7.706,19.266-20.1,19.392-20.221a1.629,1.629,0,0,1,1.92-.169.938.938,0,0,1,.213,1.52c-.126.123-12.576,12.459-19.283,20.1-6.844,7.8-22.18,17.715-22.83,18.134A1.564,1.564,0,0,1,218.942,332.834Z" transform="translate(-217.576 -292.598)" fill="#483026"/></g><g transform="translate(806.197 694.708)"><path d="M191.428,342.578a1.371,1.371,0,0,1-1.308-.768,1.063,1.063,0,0,1,.912-1.347c7.78-1.859,36.007-18.571,36.291-18.74a1.616,1.616,0,0,1,1.912.218.941.941,0,0,1-.276,1.514c-1.177.7-28.9,17.109-37.14,19.077A1.7,1.7,0,0,1,191.428,342.578Z" transform="translate(-190.061 -321.508)" fill="#483026"/></g><path d="M236.067,365.128l-45.56-13.243a3.678,3.678,0,0,0-3.952,1.563c-1.174.757-1.707,2.017-.538,3.28a132.794,132.794,0,0,0,34.934,26.625c-14.422-1.364-28.044-7.3-36.72-16.705-2.575-2.791-8.422.024-5.817,2.848,12.426,13.468,33.716,21.183,54.746,19.343,3.244-.283,4.774-3.684,1.587-5.081a132.114,132.114,0,0,1-37.056-24.05q18.36,5.339,36.722,10.673a3.588,3.588,0,0,0,4.146-1.972C239.046,366.862,237.806,365.634,236.067,365.128Z" transform="translate(594.844 408.363)" fill="#dd7c79"/><path d="M366.624,493.979c-9.368,13.384-22,26.357-42.923,29.882-9.041,1.514-18.736,1.038-27.483,3.157-7.736,1.881-14.036,5.643-20.759,8.8-16.451,7.741-36.394,12.152-56.534,12.5-17.136.3-34.6-2.227-51.213.605-25.427,4.324-42.172,19.806-62.278,30.984C78.472,594.888-58.083,612.519-93.335,611.135c-25.688-74.812,25.688-174.089,0-248.9,18.671-2.616,46.271-17.058,66.15-23.89,29.507-10.1,58.557-21.817,91.2-25.882a203.755,203.755,0,0,1,70.21,3.546c15.929,3.7,31.074,9.406,47.851,10.724,22.881,1.773,45.044-4.8,67.338-8.649a285.951,285.951,0,0,1,99.423.735c-12.142,18.1-24.48,37.276-35.937,59.05-4.439,8.476-8.584,17.233-8.421,26.206.131,9.254,4.863,18.184,10.086,26.746C328.141,453.113,345.636,474.346,366.624,493.979Z" transform="translate(71.192 360.906)" fill="#cbd9d1"/><path d="M92.758,511.278c-49.3-38.736-71.776-95.463-58.592-149.525a146.092,146.092,0,0,1,19.936-45.5c2.425-3.7-4.643-6.984-7.073-3.274C29.8,339.255,21.151,368.91,22.281,398.519c1.076,28.165,11.145,55.908,28.811,80.354a185.707,185.707,0,0,0,35.87,36.991C90.712,518.809,96.507,514.225,92.758,511.278Z" transform="translate(325.555 361.391)" fill="#adbfb2"/><path d="M79.061,516.709C35.072,475.448,11.8,421.9,14.317,367.95A176.978,176.978,0,0,1,23.5,319.7c1.357-4.037-6.543-5.76-7.9-1.723C-3.084,373.528,5.933,433.508,40.807,483.941A233.634,233.634,0,0,0,73.266,521.3C76.674,524.489,82.445,519.881,79.061,516.709Z" transform="translate(297.676 366.422)" fill="#adbfb2"/></g><g clip-path="url(#a)"><path d="M960.763,26.234l7.14,268.505H951.941a118.606,118.606,0,0,1-17.57,4.022c-15.737,2.458-32.978,2.56-49.341,1.827-9.479-.413-19.056-1.055-28.632-1.535-8.426-.406-16.834-.685-25.178-.588a189.148,189.148,0,0,0-28.943,2.329c-22.531,3.747-42.137,12.573-64.865,15.862-4.182.6-8.4,1.025-12.666,1.289-23.585,1.581-48.345-.629-70.19,4.871-1.782.454-3.526.943-5.2,1.481-19.213,6.009-33.822,16.941-53.638,22.407-13.888,3.831-29.893,4.51-44.705,2.3a94.156,94.156,0,0,1-23.338-6.4q-16.593,6.084-33.225,12.132a212.318,212.318,0,0,1-19.227-9.751c-42.012-24.072-67.579-58.661-68.437-93.686a63.88,63.88,0,0,1,.186-7.628q22.444-6.853,44.88-13.723c1.432-15.525,5.622-32.305,24.31-41.964,1.325-.681,2.715-1.328,4.2-1.946,17.341-7.163,40.358-6.588,59.621-11.6,19.12-4.969,32.661-14.764,46.63-24.351a218.618,218.618,0,0,1,18.852-11.9c2.826-1.552,5.783-3.023,8.848-4.391,26.132-11.55,60.114-14.191,88.821-23.252,4.154-1.308,8.165-2.752,12.073-4.281,26.674-10.459,48.1-25.566,73.362-37.48C823.119,52.492,917.2,29.083,960.763,26.234Z" transform="translate(999.237 45.436)" fill="#eebfa6"/><path d="M665.427,137.452q-10.094,6.386-20.188,12.792c-13.541,8.595-27.148,17.213-42.2,24.1-40.282,18.448-87.928,23.265-133.407,31.3-11.236,2.007-23.522,4.824-30.326,11.9A47.583,47.583,0,0,0,416.3,231.521c-5.834,6.381-9.652,13.723-12.81,21.2-22.358,13.473-52.8,17.873-73.4,33.181a100.138,100.138,0,0,0-15.178,14.459c-6.455,7.265-12.442,14.783-18.427,22.3q-16.084,20.2-32.191,40.4c-2.475,3.137-5.048,6.389-5.565,10.059a4.412,4.412,0,0,0,.3,2.7c.86,1.654,3.161,2.521,5.348,3.053,10.242,2.407,21.509.106,30.672-4.238,9.138-4.342,16.554-10.595,23.822-16.746Q332.048,346.727,345.2,335.6q-8.693,22.028-15.744,44.448c-1.079,3.405-2.131,6.863-1.975,10.37.132,3.328,1.332,6.549,2.326,9.788a85.249,85.249,0,0,1,3.45,17.226c.214,2.376.461,4.988,2.593,6.683,1.8,1.434,4.549,1.866,7.1,1.661,8.806-.67,14.788-7.334,18.2-13.756a53.639,53.639,0,0,0,6.213-22.318c.146-2.787.055-5.626.807-8.355a31.759,31.759,0,0,1,3.194-7c8.33-14.852,16.7-29.761,26.783-43.9,9.992,27.185,12.407,55.83,21.193,83.312,1.088,3.414,2.318,6.887,4.969,9.721a5.255,5.255,0,0,0,2.568,1.68,6.738,6.738,0,0,0,3.527-.337,27.056,27.056,0,0,0,16-12.945,30.473,30.473,0,0,0,3.274-15.116c.5-.223,1-.48,1.472-.735a590.8,590.8,0,0,1,100.37-42.492c18.5-5.927,37.549-11.081,54.546-19.337,25.626-12.428,45.259-31.27,61.33-51.313,14.857-18.55,28.079-39.233,50.651-51.746C685.746,207.066,666.086,172.477,665.427,137.452ZM455.048,354.524c-2.181,1.663-4.309,3.375-6.336,5.17,0,0-3.48-29.921-4.537-35.058l3.225-4.811s5.111,28.465,9.915,32.106l.569.48C456.938,353.1,455.993,353.813,455.048,354.524Zm33.265-21.585s-4.43-10.2-3.26-16.642c1.148-6.441,9-22.016,9-22.016s30.455,7.081,31.713,13.6Z" transform="translate(740.581 159.289)" fill="#f7e8e0"/><g transform="translate(1410.988 284.917)"><path d="M409.939,145.585a1.458,1.458,0,0,1-1.211-.571.977.977,0,0,1,.56-1.464l27.055-11.438a1.579,1.579,0,0,1,1.859.441.977.977,0,0,1-.56,1.464l-27.054,11.438A1.641,1.641,0,0,1,409.939,145.585Z" transform="translate(-408.563 -131.984)" fill="#483026"/></g><g transform="translate(1445.908 279.877)"><path d="M467.294,173.473a1.739,1.739,0,0,1-.456-.061c-23.47-6.506-41.348-23.187-45.542-42.5-.126-.588.376-1.148,1.123-1.248a1.385,1.385,0,0,1,1.585.882c3.966,18.262,21.547,34.667,43.746,40.82a1.043,1.043,0,0,1,.84,1.379A1.4,1.4,0,0,1,467.294,173.473Z" transform="translate(-421.277 -129.652)" fill="#483026"/></g><g transform="translate(1481.717 319.539)"><path d="M445.995,199.2a1.475,1.475,0,0,1-1.2-.556c-10.624-15.081-13.321-33.252-7.391-49.856a1.443,1.443,0,0,1,1.695-.748c.731.162,1.154.759.95,1.334-5.732,16.059-3.129,33.635,7.152,48.221a.972.972,0,0,1-.536,1.47A1.7,1.7,0,0,1,445.995,199.2Z" transform="translate(-434.314 -147.996)" fill="#483026"/></g><g transform="translate(1414.133 304.616)"><path d="M411.084,156.9a1.479,1.479,0,0,1-1.2-.556.973.973,0,0,1,.533-1.47L441.6,141.23a1.594,1.594,0,0,1,1.87.419.973.973,0,0,1-.533,1.47l-31.188,13.648A1.7,1.7,0,0,1,411.084,156.9Z" transform="translate(-409.708 -141.094)" fill="#483026"/></g><g transform="translate(1423.175 313.54)"><path d="M414.376,165.009a1.473,1.473,0,0,1-1.192-.543.966.966,0,0,1,.508-1.475c12.223-5.516,24.333-11.432,36-17.587a1.613,1.613,0,0,1,1.9.3.949.949,0,0,1-.376,1.5c-11.717,6.182-23.882,12.126-36.16,17.665A1.681,1.681,0,0,1,414.376,165.009Z" transform="translate(-413 -145.221)" fill="#483026"/></g><g transform="translate(1430.102 327.879)"><path d="M416.895,170.552a1.439,1.439,0,0,1-1.233-.608.991.991,0,0,1,.632-1.447l43.114-16.536a1.564,1.564,0,0,1,1.835.5.991.991,0,0,1-.632,1.447L417.5,170.441A1.644,1.644,0,0,1,416.895,170.552Z" transform="translate(-415.522 -151.853)" fill="#483026"/></g><g transform="translate(1437.06 345.206)"><path d="M419.431,178.629a1.478,1.478,0,0,1-1.187-.536.964.964,0,0,1,.494-1.479c12.772-5.857,25.958-11.455,39.192-16.634a1.563,1.563,0,0,1,1.84.487.988.988,0,0,1-.618,1.449c-13.181,5.157-26.313,10.731-39.033,16.567A1.645,1.645,0,0,1,419.431,178.629Z" transform="translate(-418.055 -159.867)" fill="#483026"/></g><g transform="translate(1453.557 362.835)"><path d="M425.436,185a1.551,1.551,0,0,1-1.063-.4.935.935,0,0,1,.189-1.522,261.666,261.666,0,0,1,26.321-14.9,1.6,1.6,0,0,1,1.892.344.957.957,0,0,1-.434,1.49,259.421,259.421,0,0,0-26.035,14.738A1.569,1.569,0,0,1,425.436,185Z" transform="translate(-424.062 -168.02)" fill="#483026"/></g><g transform="translate(1464.478 376.313)"><path d="M429.411,190.255a1.559,1.559,0,0,1-1.027-.363.928.928,0,0,1,.118-1.526l19.853-13.84a1.641,1.641,0,0,1,1.936.093.929.929,0,0,1-.118,1.527l-19.853,13.84A1.6,1.6,0,0,1,429.411,190.255Z" transform="translate(-428.038 -174.253)" fill="#483026"/></g><g transform="translate(1197.095 491.147)"><path d="M332.06,249a1.572,1.572,0,0,1-1-.337.929.929,0,0,1,.055-1.529c2.843-2.119,29.386-18.822,30.512-19.531a1.644,1.644,0,0,1,1.931.169.935.935,0,0,1-.214,1.52c-.277.173-27.579,17.354-30.342,19.414A1.615,1.615,0,0,1,332.06,249Z" transform="translate(-330.689 -227.363)" fill="#483026"/></g><g transform="translate(1084.418 450.54)"><path d="M291.038,254.011a1.6,1.6,0,0,1-.939-.292.929.929,0,0,1-.063-1.529c1.208-1.016,29.752-24.982,46.168-31.268,11.143-4.268,24.766-6.16,37.939-7.992,6.556-.91,12.75-1.771,18.584-2.9,17.872-3.464,46.19.348,47.391.515.747.1,1.247.662,1.115,1.25a1.4,1.4,0,0,1-1.587.88c-.286-.041-28.95-3.9-46.264-.547-5.922,1.146-12.157,2.013-18.757,2.93-12.989,1.805-26.42,3.671-37.217,7.806-15.958,6.11-45.07,30.554-45.364,30.8A1.57,1.57,0,0,1,291.038,254.011Z" transform="translate(-289.665 -208.583)" fill="#483026"/></g><g transform="translate(1137.363 460.695)"><path d="M310.316,243.4a1.7,1.7,0,0,1-.61-.112.99.99,0,0,1-.623-1.449c.61-.969,15.01-23.791,25.566-28.422a1.585,1.585,0,0,1,1.868.417.97.97,0,0,1-.53,1.47c-9.811,4.307-24.294,27.261-24.44,27.495A1.446,1.446,0,0,1,310.316,243.4Z" transform="translate(-308.941 -213.28)" fill="#483026"/></g><g transform="translate(1154.434 456.289)"><path d="M339.716,218.12c-14.535,0-23.02-2.1-23.61-2.251a1.053,1.053,0,0,1-.882-1.362,1.479,1.479,0,0,1,1.73-.694c.239.063,24.613,6.054,62.063-2.528a1.453,1.453,0,0,1,1.7.735c.211.573-.206,1.172-.937,1.341A179.821,179.821,0,0,1,339.716,218.12Z" transform="translate(-315.157 -211.242)" fill="#483026"/></g><g transform="translate(1186.608 459.929)"><path d="M328.245,233.189a1.7,1.7,0,0,1-.615-.115.988.988,0,0,1-.615-1.451c.085-.136,8.652-13.646,10.377-17.942a1.477,1.477,0,0,1,1.722-.707,1.057,1.057,0,0,1,.9,1.358c-1.785,4.461-10.182,17.7-10.539,18.258A1.447,1.447,0,0,1,328.245,233.189Z" transform="translate(-326.87 -212.925)" fill="#483026"/></g><g transform="translate(1264.967 453.451)"><path d="M356.774,224.729a1.564,1.564,0,0,1-1.035-.37.931.931,0,0,1,.132-1.526A59.516,59.516,0,0,0,368.5,210.474a1.6,1.6,0,0,1,1.876-.4.969.969,0,0,1,.511,1.475,60.937,60.937,0,0,1-13.214,12.917A1.61,1.61,0,0,1,356.774,224.729Z" transform="translate(-355.4 -209.929)" fill="#483026"/></g><g transform="translate(1142.697 400.178)"><path d="M312.258,198.2a1.479,1.479,0,0,1-1.189-.538.965.965,0,0,1,.5-1.477c.673-.307,16.625-7.548,30.276-10.843a1.468,1.468,0,0,1,1.717.718c.22.571-.187,1.174-.912,1.349-13.346,3.222-29.543,10.573-29.7,10.647A1.67,1.67,0,0,1,312.258,198.2Z" transform="translate(-310.883 -185.291)" fill="#483026"/></g><g transform="translate(1178.514 374.15)"><path d="M325.3,177.013a1.342,1.342,0,0,1-1.343-.854c-.159-.584.313-1.159,1.055-1.284.508-.086,12.505-2.1,19.119-1.516.753.067,1.3.6,1.211,1.194a1.335,1.335,0,0,1-1.519.956c-6.152-.532-18.117,1.459-18.235,1.479A1.485,1.485,0,0,1,325.3,177.013Z" transform="translate(-323.924 -173.253)" fill="#483026"/></g><path d="M293.9,266.937a38.112,38.112,0,0,1,1.785,10.413c.03.415.005.925-.429,1.142a1.9,1.9,0,0,1-.953.112,23.393,23.393,0,0,0-5.606.487l-.022,0a1.916,1.916,0,0,1-.918-.324,2.448,2.448,0,0,1-.786-1.788q-.964-8-1.934-16.024a.783.783,0,0,1,.071-.515c.211-.324.783-.352,1.252-.281a8.857,8.857,0,0,1,4.955,2.5A11.523,11.523,0,0,1,293.9,266.937Z" transform="translate(786.66 301.863)" fill="#e39590"/><path d="M283.146,237.143c1.09,1.836.722,3.987.126,5.957a35.129,35.129,0,0,1-12.261,17.252,3.557,3.557,0,0,1-1.843.891,4.1,4.1,0,0,1-1.4-.16c-2.873-.659-5.768-1.315-8.666-1.972l-.4.649c.316-2.184,1.769-4.132,3.205-6.024q6.291-8.258,12.563-16.515a6.559,6.559,0,0,1,2.348-2.147A5.411,5.411,0,0,1,283.146,237.143Z" transform="translate(740.665 272.326)" fill="#e39590"/><path d="M332.054,279.022c-.162.357-.643.541-1.06.7-2.068.765-4.112,1.509-6.161,2.253.593.316,1.162.614,1.755.912l-1.057-.333c-2.282-.543-3.241-2.605-3.911-4.4q-2.439-6.824-4.917-13.609a6.024,6.024,0,0,1-.522-3.133,2.861,2.861,0,0,1,2.477-2.212,4.478,4.478,0,0,1,1.857.285c2.9,1.018,4.584,3.369,5.914,5.639a54.577,54.577,0,0,1,5.595,13.155A1.29,1.29,0,0,1,332.054,279.022Z" transform="translate(840.962 300.772)" fill="#e39590"/><path d="M356.832,260.136c-.066,1.094-1.2,1.911-2.269,2.595a98.274,98.274,0,0,1-12.066,6.463,14.575,14.575,0,0,1-4.653,1.425,9.345,9.345,0,0,1-1.615-.015c-3.667-.376-6.661-3.04-8.894-5.527-1.881-2.08-3.766-4.359-3.752-6.917a8.6,8.6,0,0,1,2.486-5.369,24.973,24.973,0,0,1,9.531-6.66,22.6,22.6,0,0,1,2.442-.9,3.706,3.706,0,0,1,1.327-.251,3.464,3.464,0,0,1,2.483,1.741,41.184,41.184,0,0,0,14.035,11.425l-.829-.35a13.112,13.112,0,0,0-2.266-.943l2.266.943C356.121,258.378,356.912,259.15,356.832,260.136Z" transform="translate(853.997 284.252)" fill="#e39590"/><g transform="translate(1171.232 517.901)"><path d="M340.305,278.966a1.776,1.776,0,0,1-.437-.056c-16.708-4.426-20.158-15.11-18.035-22.915,2.335-8.586,16.164-15.782,16.752-16.085a1.615,1.615,0,0,1,1.9.316.952.952,0,0,1-.4,1.5c-.135.067-13.47,7.014-15.565,14.725-1.978,7.267,1.247,16.446,16.222,20.413a1.049,1.049,0,0,1,.865,1.369A1.4,1.4,0,0,1,340.305,278.966Z" transform="translate(-321.272 -239.737)" fill="#483026"/></g><g transform="translate(999.232 296.741)"><path d="M665.427,137.452q-10.094,6.386-20.188,12.792c-13.541,8.595-27.148,17.213-42.2,24.1-40.282,18.448-87.928,23.265-133.407,31.3-11.236,2.007-23.522,4.824-30.326,11.9A47.583,47.583,0,0,0,416.3,231.521c-5.834,6.381-9.652,13.723-12.81,21.2-22.358,13.473-52.8,17.873-73.4,33.181a100.138,100.138,0,0,0-15.178,14.459c-6.455,7.265-12.442,14.783-18.427,22.3q-16.084,20.2-32.191,40.4c-2.475,3.137-5.048,6.389-5.565,10.059a4.412,4.412,0,0,0,.3,2.7c.86,1.654,3.161,2.521,5.348,3.053,10.242,2.407,21.509.106,30.672-4.238,9.138-4.342,16.554-10.595,23.822-16.746Q332.048,346.727,345.2,335.6q-8.693,22.028-15.744,44.448c-1.079,3.405-2.131,6.863-1.975,10.37.132,3.328,1.332,6.549,2.326,9.788a85.249,85.249,0,0,1,3.45,17.226c.214,2.376.461,4.988,2.593,6.683,1.8,1.434,4.549,1.866,7.1,1.661,8.806-.67,14.788-7.334,18.2-13.756a53.639,53.639,0,0,0,6.213-22.318c.146-2.787.055-5.626.807-8.355a31.759,31.759,0,0,1,3.194-7c8.33-14.852,16.7-29.761,26.783-43.9,9.992,27.185,12.407,55.83,21.193,83.312,1.088,3.414,2.318,6.887,4.969,9.721a5.255,5.255,0,0,0,2.568,1.68,6.738,6.738,0,0,0,3.527-.337,27.056,27.056,0,0,0,16-12.945,30.473,30.473,0,0,0,3.274-15.116c.5-.223,1-.48,1.472-.735a590.8,590.8,0,0,1,100.37-42.492c18.5-5.927,37.549-11.081,54.546-19.337,25.626-12.428,45.259-31.27,61.33-51.313,14.857-18.55,28.079-39.233,50.651-51.746m-263,123.39c-2.181,1.663-4.309,3.375-6.336,5.17,0,0-3.48-29.921-4.537-35.058l3.225-4.811s5.111,28.465,9.915,32.106l.569.48C456.938,353.1,455.993,353.813,455.048,354.524Zm33.265-21.585s-4.43-10.2-3.26-16.642c1.148-6.441,9-22.016,9-22.016s30.455,7.081,31.713,13.6Z" transform="translate(-258.65 -137.452)" fill="none" stroke="#483026" stroke-linecap="round" stroke-linejoin="round" stroke-miterlimit="10" stroke-width="1"/></g><path d="M367.021,231.321c-8.152.186-16.271.752-24.341,1.626a131.36,131.36,0,0,1,25.39-8.8,2.591,2.591,0,0,0,1.961-3.5c-.714-1.453-2.667-1.965-4.45-1.544a133.761,133.761,0,0,0-36.846,14.649,2.313,2.313,0,0,0-1.349,2.294,2.092,2.092,0,0,0-.368,1.483,3.351,3.351,0,0,0,3.768,2.417,285.711,285.711,0,0,1,36.929-3.241c1.859-.043,3.252-1.587,3.071-2.966C370.589,232.195,368.884,231.28,367.021,231.321Z" transform="translate(859.966 254.017)" fill="#dd7c79"/></g></g><path d="M286.584,140.092a199.087,199.087,0,0,1-51.732,33.151,200.478,200.478,0,0,1-8.442-63.973c.243-8.076,1.728-17.393,8.778-21.458,8.23-4.763,19.363,1.289,23.339,9.853,3.978,8.588,2.858,18.524,1.658,27.875,5.394-4.757,11.138-9.7,18.236-11.077,7.072-1.4,15.726,2.348,16.908,9.406C296.4,130.18,291.408,135.813,286.584,140.092Z" transform="translate(402.239 99.649)" fill="#e39590"/><path d="M295.326,164.683c-3.771,1.232-7.845,1.206-11.789.962a138.093,138.093,0,0,1-38.648-7.886l.295-2.562a196.355,196.355,0,0,1,28.047-38.719c4.645-5,11.28-10.177,17.674-7.7,5.691,2.205,7.566,9.771,5.508,15.464-2.034,5.717-6.812,9.946-11.415,13.933,4.765,1.358,9.65,2.778,13.53,5.855,3.878,3.053,6.5,8.175,5.11,12.891C302.549,160.7,299.073,163.453,295.326,164.683Z" transform="translate(433.692 125.221)" fill="#dd7c79"/><path d="M244.321,104.681a26.76,26.76,0,0,1,3.266,9.646,116.454,116.454,0,0,1,1.3,33.91l-2.246.285a173.408,173.408,0,0,1-38.831-15.386c-5.228-2.839-11.018-7.306-10.233-13.161.7-5.209,6.76-8.346,12.042-7.808,5.3.512,9.895,3.626,14.247,6.642.168-4.26.367-8.636,2.185-12.513,1.8-3.87,5.619-7.129,9.93-6.943C239.43,99.474,242.5,101.807,244.321,104.681Z" transform="translate(349.413 115.002)" fill="#dd7c79"/><g transform="translate(106.229 414.025)"><g transform="translate(14.492 76.674)"><path d="M54.195,255.965v.009l11.85,7.079,6.871,21.719,6.869-21.73,11.85-7.077v-.011l-11.85-7.077-6.869-21.721-6.871,21.732Z" transform="translate(-54.195 -227.156)" fill="#eebfa6"/></g><path d="M53.629,217.03c8.083,0,8.1,12.433,0,12.433S45.533,217.03,53.629,217.03Z" transform="translate(-47.562 -162.251)" fill="#eebfa6"/><path d="M81.737,217.03c8.083,0,8.1,12.433,0,12.433S73.641,217.03,81.737,217.03Z" transform="translate(-14.262 -162.251)" fill="#eebfa6"/><path d="M100.907,240.854c8.083,0,8.1,12.433,0,12.433S92.808,240.854,100.907,240.854Z" transform="translate(8.447 -134.562)" fill="#eebfa6"/><g transform="translate(96.24)"><path d="M91.613,211.877v.006l8.3,4.958,4.813,15.215,4.811-15.222,8.3-4.958v-.007l-8.3-4.958L104.728,191.7l-4.813,15.224Z" transform="translate(-91.613 -191.695)" fill="#eebfa6"/></g></g><g transform="translate(539.787 887.467)"><g transform="translate(14.491 21.897)"><path d="M200.7,449.592v.011l11.852,7.077,6.869,21.722,6.871-21.732,11.85-7.077v-.009l-11.85-7.077-6.871-21.721-6.869,21.73Z" transform="translate(-200.701 -420.785)" fill="#eebfa6"/></g><path d="M200.137,410.658c8.083,0,8.1,12.433,0,12.433S192.038,410.658,200.137,410.658Z" transform="translate(-194.068 -410.658)" fill="#eebfa6"/><path d="M228.244,410.658c8.083,0,8.1,12.433,0,12.433S220.148,410.658,228.244,410.658Z" transform="translate(-160.767 -410.658)" fill="#eebfa6"/></g><g transform="translate(1077.705 673.184)"><path d="M427.635,311.554c8.084,0,8.1,12.433,0,12.433S419.539,311.554,427.635,311.554Z" transform="translate(-303.132 -311.554)" fill="#eebfa6"/><path d="M397.026,356.85c8.084,0,8.1,12.433,0,12.433S388.927,356.85,397.026,356.85Z" transform="translate(-339.397 -258.911)" fill="#eebfa6"/><path d="M387.473,314.429c8.084,0,8.1,12.433,0,12.433S379.374,314.429,387.473,314.429Z" transform="translate(-350.714 -308.213)" fill="#eebfa6"/><g transform="translate(68.262 30.727)"><path d="M398.6,345.945v.007l8.3,4.958,4.813,15.215L416.53,350.9l8.3-4.958v-.006l-8.3-4.958-4.813-15.215L406.9,340.987Z" transform="translate(-398.602 -325.765)" fill="#eebfa6"/></g><path d="M373.424,344.431c8.083,0,8.1,12.433,0,12.433S365.328,344.431,373.424,344.431Z" transform="translate(-367.357 -273.344)" fill="#eebfa6"/></g><g transform="translate(883.018 165.316)"><g transform="translate(62.047 21.897)"><path d="M343.1,115.6v.011l11.85,7.077,6.871,21.719,6.869-21.73,11.852-7.077v-.009l-11.852-7.079L361.825,86.8l-6.871,21.73Z" transform="translate(-343.104 -86.796)" fill="#eebfa6"/></g><path d="M342.538,76.669c8.084,0,8.1,12.433,0,12.433S334.442,76.669,342.538,76.669Z" transform="translate(-288.916 -76.669)" fill="#eebfa6"/><path d="M370.646,76.669c8.083,0,8.1,12.433,0,12.433S362.55,76.669,370.646,76.669Z" transform="translate(-255.616 -76.669)" fill="#eebfa6"/><path d="M320.771,100.119c8.083,0,8.1,12.433,0,12.433S312.675,100.119,320.771,100.119Z" transform="translate(-314.704 -49.415)" fill="#eebfa6"/></g></g></g></g></svg>