<svg xmlns="http://www.w3.org/2000/svg" width="582.436" height="80.067" viewBox="0 0 582.436 80.067">
  <g id="flower" transform="translate(-20.073 -122.226)">
    <g id="Grupo_3420" data-name="Grupo 3420" transform="translate(299.509 122.226)">
      <g id="Grupo_3351" data-name="Grupo 3351" transform="translate(0 14.106)">
        <g id="Grupo_3350" data-name="Grupo 3350">
          <path id="Caminho_1623" data-name="Caminho 1623" d="M138.922,135.944c-3.352-1.794-8.166-1.395-10.147,2.294-2.312,4.306.145,10.149,3.108,13.431,3.754,4.161,9.442,5.851,14.826,6.528a65.773,65.773,0,0,0,16.993-.259C187.191,154.757,207.97,142,231.019,137.1a85.2,85.2,0,0,1,38.558.931,116.6,116.6,0,0,1,18.813,6.5c5.978,2.639,11.687,5.833,17.629,8.545a62.983,62.983,0,0,0,18.1,5.444,91.838,91.838,0,0,0,20.444-.013,147.331,147.331,0,0,0,21.883-4.031,173.476,173.476,0,0,0,26.347-8.765c7.249-3.119,15.3-6.93,20.638-12.934a40.948,40.948,0,0,0,2.891-3.858c.635-.91-.856-1.771-1.485-.868-1.83,2.616-4.8,4.8-7.36,6.644a73.146,73.146,0,0,1-10.116,6,145.763,145.763,0,0,1-24.7,9.328,185.536,185.536,0,0,1-22.956,5.221c-10.5,1.641-21.777,2.2-32.128-.534-6.092-1.607-11.765-4.4-17.367-7.22-5.372-2.7-10.756-5.327-16.369-7.492-11.516-4.446-23.812-7.23-36.2-7.171-23,.114-43.634,11.179-65.016,18.145-10.479,3.414-21.4,5.859-32.483,5.2-5.561-.332-11.78-1.421-15.98-5.4a13.088,13.088,0,0,1-3.832-6.727c-.417-1.965-.487-4.456,1.089-5.921a6.043,6.043,0,0,1,6.8-.967c.8.355,1.506-.773.7-1.2Z" transform="translate(-127.861 -127.668)" fill="#fff"/>
        </g>
      </g>
      <g id="Grupo_3368" data-name="Grupo 3368" transform="translate(114.747 4.73)">
        <g id="Grupo_3353" data-name="Grupo 3353" transform="translate(0 2.441)">
          <g id="Grupo_3352" data-name="Grupo 3352">
            <path id="Caminho_1624" data-name="Caminho 1624" d="M172.913,139.475c8.223-3.523,16.3-7.44,24.929-9.908a62.051,62.051,0,0,1,26.847-1.745c1.027.156,1.5-1.314.441-1.6-8.8-2.385-18.549-.985-27.166,1.5a136.034,136.034,0,0,0-25.575,10.857c-.6.316-.073,1.148.524.894Z" transform="translate(-172.123 -124.992)" fill="#fff"/>
          </g>
        </g>
        <g id="Grupo_3355" data-name="Grupo 3355" transform="translate(51.908)">
          <g id="Grupo_3354" data-name="Grupo 3354">
            <path id="Caminho_1625" data-name="Caminho 1625" d="M193.6,129.1a10.563,10.563,0,0,1,2.556-2.357,11.242,11.242,0,0,1,1.566-.892c.565-.262,1.1-.563,1.657-.856a.512.512,0,0,0-.257-.946,5.066,5.066,0,0,0-2.009.353,11.013,11.013,0,0,0-1.872.964,11.511,11.511,0,0,0-2.981,2.948.777.777,0,0,0,1.34.785Z" transform="translate(-192.146 -124.051)" fill="#fff"/>
          </g>
        </g>
        <g id="Grupo_3357" data-name="Grupo 3357" transform="translate(51.884 3.825)">
          <g id="Grupo_3356" data-name="Grupo 3356">
            <path id="Caminho_1626" data-name="Caminho 1626" d="M192.415,126.192a7.637,7.637,0,0,0-.036,3.948,4.59,4.59,0,0,0,2.357,3.251.7.7,0,0,0,.855-.855,10.212,10.212,0,0,0-.757-1.517c-.067-.127-.137-.251-.2-.381-.029-.057-.054-.117-.08-.174-.067-.148.047.119-.013-.031-.1-.267-.2-.537-.285-.811s-.132-.524-.181-.791c-.01-.062-.021-.135-.008-.029-.008-.062-.016-.127-.021-.189-.013-.143-.023-.285-.026-.43a6.467,6.467,0,0,1,.026-.809c.005-.062.013-.127.021-.189-.013.1,0,.013.008-.036.031-.158.062-.314.1-.467a.914.914,0,0,0-1.76-.49Z" transform="translate(-192.137 -125.526)" fill="#fff"/>
          </g>
        </g>
        <g id="Grupo_3359" data-name="Grupo 3359" transform="translate(52.663 3.681)">
          <g id="Grupo_3358" data-name="Grupo 3358">
            <path id="Caminho_1627" data-name="Caminho 1627" d="M192.844,127.027a10.555,10.555,0,0,0,2.6,1.428,6.409,6.409,0,0,0,1.327.36,4.908,4.908,0,0,0,.848.1c.244-.005.485-.031.726-.06a.6.6,0,0,0,.161-1.182c-.438-.13-.868-.275-1.307-.407s-.85-.27-1.265-.425q-.14-.051-.28-.109c-.093-.039-.106-.044-.036-.016l-.158-.07c-.207-.1-.415-.2-.617-.309a9.885,9.885,0,0,1-1.159-.744.832.832,0,0,0-1.135.3.862.862,0,0,0,.3,1.138Z" transform="translate(-192.437 -125.471)" fill="#fff"/>
          </g>
        </g>
        <g id="Grupo_3361" data-name="Grupo 3361" transform="translate(52.865 2.265)">
          <g id="Grupo_3360" data-name="Grupo 3360">
            <path id="Caminho_1628" data-name="Caminho 1628" d="M193.775,127.769a13,13,0,0,1,2.849-.83c.469-.083.879-.117,1.395-.171a10.8,10.8,0,0,0,1.6-.324.659.659,0,0,0,0-1.26,4.587,4.587,0,0,0-1.714-.251,12.386,12.386,0,0,0-1.768.264,14.765,14.765,0,0,0-3.217,1.125.846.846,0,0,0-.3,1.148.868.868,0,0,0,1.151.3Z" transform="translate(-192.515 -124.925)" fill="#fff"/>
          </g>
        </g>
        <g id="Grupo_3363" data-name="Grupo 3363" transform="translate(52.959 4.374)">
          <g id="Grupo_3362" data-name="Grupo 3362">
            <path id="Caminho_1629" data-name="Caminho 1629" d="M192.591,126.782a12.477,12.477,0,0,0,1.395,2.758,13.664,13.664,0,0,0,.962,1.25,8.272,8.272,0,0,0,1.125,1.024.768.768,0,0,0,1.086-1.086c-.334-.329-.635-.684-.946-1.037-.156-.176-.306-.353-.454-.534-.036-.044-.067-.083-.013-.016l-.117-.156c-.07-.093-.137-.189-.2-.285a11.346,11.346,0,0,1-.71-1.164c-.109-.207-.213-.415-.311-.63-.026-.06-.054-.119-.08-.179s-.042-.1-.008-.018c-.049-.122-.1-.241-.143-.363a.82.82,0,0,0-1.581.436Z" transform="translate(-192.552 -125.738)" fill="#fff"/>
          </g>
        </g>
        <g id="Grupo_3365" data-name="Grupo 3365" transform="translate(56.927 0.951)">
          <g id="Grupo_3364" data-name="Grupo 3364">
            <path id="Caminho_1630" data-name="Caminho 1630" d="M194.453,125.209a11.392,11.392,0,0,1,5.851,1.431,15.97,15.97,0,0,1,4.425,4.021c.309.371.786-.1.62-.477a9.788,9.788,0,0,0-4.628-4.418,12.256,12.256,0,0,0-6.269-1.327c-.49.031-.5.785,0,.77Z" transform="translate(-194.082 -124.418)" fill="#fff"/>
          </g>
        </g>
        <g id="Grupo_3367" data-name="Grupo 3367" transform="translate(54.487 6.399)">
          <g id="Grupo_3366" data-name="Grupo 3366">
            <path id="Caminho_1631" data-name="Caminho 1631" d="M193.271,130.82a11.012,11.012,0,0,0,7.84.946,10.5,10.5,0,0,0,3.718-1.693c.407-.29,1.065-.69,1.156-1.237a1.152,1.152,0,0,0-.6-1.055l-.264.451a1.074,1.074,0,0,0,1.41-1.53c-.213-.417-.837-.049-.627.366a.488.488,0,0,1-.581.684c-.327-.067-.469.428-.14.506.438.1-.337.757-.381.791-.215.156-.441.3-.666.43a11.784,11.784,0,0,1-1.491.749,14.415,14.415,0,0,1-2.841.915,10.028,10.028,0,0,1-6.271-.773c-.3-.143-.56.288-.264.448Z" transform="translate(-193.141 -126.519)" fill="#fff"/>
          </g>
        </g>
      </g>
      <g id="Grupo_3385" data-name="Grupo 3385" transform="translate(109.853 20.906)">
        <g id="Grupo_3370" data-name="Grupo 3370">
          <g id="Grupo_3369" data-name="Grupo 3369">
            <path id="Caminho_1632" data-name="Caminho 1632" d="M170.27,130.932c2.224,5.613,6.087,10.575,10.038,15.078a69.742,69.742,0,0,0,6.888,6.9,25.051,25.051,0,0,0,6.787,4.5c.9.36,1.405-1.037.64-1.517-9.753-6.082-17.878-15.311-23.4-25.359-.275-.5-1.169-.155-.949.4Z" transform="translate(-170.236 -130.291)" fill="#fff"/>
          </g>
        </g>
        <g id="Grupo_3372" data-name="Grupo 3372" transform="translate(23.21 25.332)">
          <g id="Grupo_3371" data-name="Grupo 3371">
            <path id="Caminho_1633" data-name="Caminho 1633" d="M179.21,140.84a11,11,0,0,0,.477,4.031,7.053,7.053,0,0,0,2.165,3.443.511.511,0,0,0,.8-.617,33.759,33.759,0,0,1-1.382-3.324,10.672,10.672,0,0,1-.5-3.534.778.778,0,1,0-1.555,0Z" transform="translate(-179.189 -140.062)" fill="#fff"/>
          </g>
        </g>
        <g id="Grupo_3374" data-name="Grupo 3374" transform="translate(23.447 21.617)">
          <g id="Grupo_3373" data-name="Grupo 3373">
            <path id="Caminho_1634" data-name="Caminho 1634" d="M180.955,143.746a6.494,6.494,0,0,1,.4-.736c.075-.119.153-.233.236-.347.054-.073.1-.122.016-.023.049-.06.1-.119.145-.176a6.84,6.84,0,0,1,.555-.576c.1-.1.21-.184.316-.275.14-.119-.08.054.013-.013.062-.044.122-.091.184-.135.218-.153.449-.29.679-.425.122-.07.244-.137.368-.2.057-.029.114-.057.171-.083.031-.016.27-.117.047-.026.171-.07.34-.14.508-.218.07-.034.2-.088.054-.029.07-.029.143-.057.215-.083a4.824,4.824,0,0,0,.863-.4.7.7,0,0,0-.166-1.27,3.244,3.244,0,0,0-2.022.145,6.758,6.758,0,0,0-1.727.926,7.51,7.51,0,0,0-2.427,3.018.938.938,0,0,0,.327,1.25.917.917,0,0,0,1.244-.324Z" transform="translate(-179.28 -138.629)" fill="#fff"/>
          </g>
        </g>
        <g id="Grupo_3376" data-name="Grupo 3376" transform="translate(23.713 25.889)">
          <g id="Grupo_3375" data-name="Grupo 3375">
            <path id="Caminho_1635" data-name="Caminho 1635" d="M180.216,141.936a7.736,7.736,0,0,1,1.19.124,9.856,9.856,0,0,1,1.333.345c.417.14.837.293,1.244.461.049.021.054.021.013.005.054.023.109.047.163.073.143.062.283.124.428.176.215.078.43.153.64.238a.6.6,0,0,0,.679-.277.616.616,0,0,0-.093-.728,6.308,6.308,0,0,0-2.626-1.579,10.711,10.711,0,0,0-2.974-.5.837.837,0,0,0-.83.83.85.85,0,0,0,.832.83Z" transform="translate(-179.383 -140.277)" fill="#fff"/>
          </g>
        </g>
        <g id="Grupo_3378" data-name="Grupo 3378" transform="translate(23.8 26.115)">
          <g id="Grupo_3377" data-name="Grupo 3377">
            <path id="Caminho_1636" data-name="Caminho 1636" d="M179.52,141.632a14.808,14.808,0,0,0,1.828,2.867,10.7,10.7,0,0,0,1.076,1.169,4.371,4.371,0,0,0,.783.591,6.264,6.264,0,0,0,.848.36.659.659,0,0,0,.739-.959,10.417,10.417,0,0,0-1.063-1.3c-.373-.358-.734-.726-1.076-1.115-.166-.189-.324-.384-.482-.581.1.13-.01-.016-.031-.041-.039-.052-.08-.106-.119-.161-.078-.106-.156-.215-.231-.324a13.954,13.954,0,0,1-.822-1.361.847.847,0,0,0-1.148-.3.868.868,0,0,0-.3,1.154Z" transform="translate(-179.416 -140.364)" fill="#fff"/>
          </g>
        </g>
        <g id="Grupo_3380" data-name="Grupo 3380" transform="translate(24.394 23.968)">
          <g id="Grupo_3379" data-name="Grupo 3379">
            <path id="Caminho_1637" data-name="Caminho 1637" d="M180.874,142.652a12.561,12.561,0,0,1,5.058-1.581.79.79,0,0,0,.767-.767.779.779,0,0,0-.767-.767,11.271,11.271,0,0,0-5.885,1.7.82.82,0,0,0,.827,1.415Z" transform="translate(-179.645 -139.536)" fill="#fff"/>
          </g>
        </g>
        <g id="Grupo_3382" data-name="Grupo 3382" transform="translate(25.139 31.199)">
          <g id="Grupo_3381" data-name="Grupo 3381">
            <path id="Caminho_1638" data-name="Caminho 1638" d="M180.056,142.967a12.238,12.238,0,0,0,5.779,2.93,9.849,9.849,0,0,0,6.4-.576c.417-.215.114-.8-.3-.721a15.66,15.66,0,0,1-5.929.345,11.4,11.4,0,0,1-5.405-2.522c-.371-.316-.91.207-.542.544Z" transform="translate(-179.933 -142.325)" fill="#fff"/>
          </g>
        </g>
        <g id="Grupo_3384" data-name="Grupo 3384" transform="translate(29.006 22.613)">
          <g id="Grupo_3383" data-name="Grupo 3383">
            <path id="Caminho_1639" data-name="Caminho 1639" d="M181.613,139.518a10.065,10.065,0,0,1,5.315,3.235,13.973,13.973,0,0,1,1.729,2.6,11.3,11.3,0,0,1,.679,1.473c.083.223.158.448.226.674.018.065.246,1.18-.135.983l-.264.451a.5.5,0,0,1,0,.938c-.428.184-.06.809.366.627a1.066,1.066,0,0,0-.163-2.043c-.327-.075-.467.428-.14.506a1.105,1.105,0,0,0,1.177-.493,3.04,3.04,0,0,0-.238-1.955,10.681,10.681,0,0,0-1.856-3.474,10.88,10.88,0,0,0-6.556-4.026c-.321-.057-.467.425-.135.5Z" transform="translate(-181.424 -139.013)" fill="#fff"/>
          </g>
        </g>
      </g>
      <g id="Grupo_3387" data-name="Grupo 3387" transform="translate(24.538 35.491)">
        <g id="Grupo_3386" data-name="Grupo 3386">
          <path id="Caminho_1640" data-name="Caminho 1640" d="M175.888,136.149a156.356,156.356,0,0,1-17.678,18.44c-6.5,5.747-13.629,10.606-20.651,15.677a.509.509,0,0,0,.513.879c7.635-3.907,14.5-9.335,20.908-15A141.077,141.077,0,0,0,176.842,137.1c.521-.671-.4-1.633-.954-.954Z" transform="translate(-137.326 -135.916)" fill="#fff"/>
        </g>
      </g>
      <g id="Grupo_3389" data-name="Grupo 3389" transform="translate(14.579 41.313)">
        <g id="Grupo_3388" data-name="Grupo 3388">
          <path id="Caminho_1641" data-name="Caminho 1641" d="M176.808,138.2a69.636,69.636,0,0,0-25.473,14.354A78.189,78.189,0,0,0,141,163.4c-2.9,3.7-6.059,7.829-7.49,12.356-.192.6.62.837.946.4,2.888-3.834,5.141-8.091,8.164-11.855a82.834,82.834,0,0,1,9.828-10.264A72.825,72.825,0,0,1,177.166,139.5c.817-.275.48-1.553-.358-1.3Z" transform="translate(-133.485 -138.162)" fill="#fff"/>
        </g>
      </g>
      <g id="Grupo_3391" data-name="Grupo 3391" transform="translate(14.461 41.563)">
        <g id="Grupo_3390" data-name="Grupo 3390">
          <path id="Caminho_1642" data-name="Caminho 1642" d="M177.777,138.384a10.186,10.186,0,0,0-1.688,2.976c-.485,1-.985,1.988-1.493,2.976a61.618,61.618,0,0,1-3.64,6.2,42.151,42.151,0,0,1-10.943,10.943c-4.073,2.862-8.244,5.654-12.555,8.145a65.257,65.257,0,0,1-6.611,3.378q-1.859.809-3.78,1.454a13.47,13.47,0,0,0-3.36,1.229.566.566,0,0,0,.283,1.045c2.279.254,5.172-1.226,7.241-2.084a64.9,64.9,0,0,0,6.862-3.365,140.779,140.779,0,0,0,13.551-8.726,41.7,41.7,0,0,0,10.507-10.684,60.445,60.445,0,0,0,3.839-6.722c.915-1.843,2.507-4.35,2.561-6.445a.459.459,0,0,0-.775-.324Z" transform="translate(-133.44 -138.259)" fill="#fff"/>
        </g>
      </g>
      <g id="Grupo_3393" data-name="Grupo 3393" transform="translate(44.865 8.427)">
        <g id="Grupo_3392" data-name="Grupo 3392">
          <path id="Caminho_1643" data-name="Caminho 1643" d="M145.273,126.236a57.4,57.4,0,0,0,15.99,13.452,60.186,60.186,0,0,0,9.255,4.319q2.419.887,4.91,1.561a20.434,20.434,0,0,0,5.252,1.029.74.74,0,0,0,.2-1.447c-1.6-.557-3.378-.7-5.027-1.1q-2.376-.579-4.7-1.364a57.625,57.625,0,0,1-9.483-4.2,59.934,59.934,0,0,1-15.778-12.866c-.379-.428-.967.187-.62.614Z" transform="translate(-145.167 -125.477)" fill="#fff"/>
        </g>
      </g>
      <g id="Grupo_3395" data-name="Grupo 3395" transform="translate(30.937 0.155)">
        <g id="Grupo_3394" data-name="Grupo 3394">
          <path id="Caminho_1644" data-name="Caminho 1644" d="M186.389,150.878c-9.141-.236-19.207-3.132-26.762-8.358-3.764-2.6-6.7-6.2-9.665-9.639l-4.721-5.488c-1.431-1.664-2.927-3.959-4.845-5.06-.275-.158-.708.111-.578.446.809,2.121,2.88,4,4.329,5.711l4.884,5.768c3.1,3.655,6.227,7.324,10.261,9.981a52.575,52.575,0,0,0,13.048,5.9,40.557,40.557,0,0,0,6.917,1.6,25.632,25.632,0,0,0,7.225-.161c.4-.062.288-.687-.093-.7Z" transform="translate(-139.795 -122.286)" fill="#fff"/>
        </g>
      </g>
      <g id="Grupo_3397" data-name="Grupo 3397" transform="translate(31.008)">
        <g id="Grupo_3396" data-name="Grupo 3396">
          <path id="Caminho_1645" data-name="Caminho 1645" d="M140.107,122.993c10.165,2.533,20.421,4.99,29.606,10.23a46.464,46.464,0,0,1,11.262,8.807c2.844,3.1,5.48,7.249,9.67,8.638.443.148.858-.508.474-.814-3.743-2.976-6.434-6.725-9.784-10.092a49.254,49.254,0,0,0-11.212-8.309c-9.159-5.04-19.563-7.526-29.8-9.219-.493-.083-.715.635-.213.76Z" transform="translate(-139.822 -122.226)" fill="#fff"/>
        </g>
      </g>
      <g id="Grupo_3399" data-name="Grupo 3399" transform="translate(69.745 20.579)">
        <g id="Grupo_3398" data-name="Grupo 3398">
          <path id="Caminho_1646" data-name="Caminho 1646" d="M193.764,130.194a49.5,49.5,0,0,0-22.5,16.348C165.483,153.871,162,162.7,154.883,169c-.327.288.091.785.451.586,7.946-4.348,11.218-13.792,16.382-20.74,5.82-7.832,13.724-13.489,22.495-17.587.6-.277.176-1.273-.446-1.06Z" transform="translate(-154.764 -130.165)" fill="#fff"/>
        </g>
      </g>
      <g id="Grupo_3401" data-name="Grupo 3401" transform="translate(56.345 24.589)">
        <g id="Grupo_3400" data-name="Grupo 3400">
          <path id="Caminho_1647" data-name="Caminho 1647" d="M193.375,131.736c-9.774,2.533-18.051,8.809-24.553,16.374a116.3,116.3,0,0,0-9.828,13.584c-2.911,4.589-5.385,9.724-9.234,13.623a.583.583,0,0,0,.7.913c4.135-2.468,6.3-7.71,8.763-11.656a127.481,127.481,0,0,1,9.875-14.106c6.5-7.847,14.668-14.645,24.641-17.413a.685.685,0,0,0-.366-1.32Z" transform="translate(-149.596 -131.711)" fill="#fff"/>
        </g>
      </g>
      <g id="Grupo_3403" data-name="Grupo 3403" transform="translate(56.492 23.357)">
        <g id="Grupo_3402" data-name="Grupo 3402">
          <path id="Caminho_1648" data-name="Caminho 1648" d="M150.258,177.368c18.124-2.058,34.143-13.859,42.143-30.153,2.279-4.638,4.464-9.965,4.163-15.22-.057-1.006-1.61-1.019-1.576,0,.194,5.771-2.735,11.912-5.514,16.843a54.513,54.513,0,0,1-9.768,12.589,57.255,57.255,0,0,1-29.614,14.717c-.679.124-.531,1.3.166,1.224Z" transform="translate(-149.652 -131.236)" fill="#fff"/>
        </g>
      </g>
      <g id="Grupo_3405" data-name="Grupo 3405" transform="translate(138.057 21.709)">
        <g id="Grupo_3404" data-name="Grupo 3404">
          <path id="Caminho_1649" data-name="Caminho 1649" d="M181.52,131.826c2.662,1.12,4.267,3.606,5.67,6s2.657,4.9,3.886,7.409a137.476,137.476,0,0,0,7.632,14.422c5.25,8.109,13.582,15.474,23.861,14.754,1.081-.075,1.1-1.727,0-1.7-11.111.259-19.145-8.3-24.328-17.2-2.753-4.723-4.975-9.724-7.588-14.523-2.118-3.891-4.438-8.62-8.807-10.346-.739-.29-1.037.881-.327,1.18Z" transform="translate(-181.115 -130.6)" fill="#fff"/>
        </g>
      </g>
      <g id="Grupo_3407" data-name="Grupo 3407" transform="translate(142.127 22.985)">
        <g id="Grupo_3406" data-name="Grupo 3406">
          <path id="Caminho_1650" data-name="Caminho 1650" d="M182.947,132.117c7.938,4.915,16.078,9.665,22.788,16.247a49.351,49.351,0,0,1,8.737,11.207,42.587,42.587,0,0,1,3.1,6.992c.786,2.318,1.091,4.78,1.869,7.08a.813.813,0,0,0,1.589-.215,24.529,24.529,0,0,0-1.677-7.355,45.566,45.566,0,0,0-3.01-6.937,46.556,46.556,0,0,0-8.783-11.472c-7.031-6.748-15.568-11.811-24.05-16.5a.551.551,0,0,0-.557.949Z" transform="translate(-182.685 -131.093)" fill="#fff"/>
        </g>
      </g>
      <g id="Grupo_3409" data-name="Grupo 3409" transform="translate(143.258 24.136)">
        <g id="Grupo_3408" data-name="Grupo 3408">
          <path id="Caminho_1651" data-name="Caminho 1651" d="M183.225,132.137c4.879,5.009,9.379,10.411,13.779,15.84q3.372,4.161,6.549,8.483c2.017,2.74,3.886,5.613,6.108,8.19.436.506,1.151-.137.879-.679a61.477,61.477,0,0,0-5.854-8.853q-3.056-4.122-6.339-8.068a194.545,194.545,0,0,0-14.624-15.41.352.352,0,0,0-.5.5Z" transform="translate(-183.121 -131.536)" fill="#fff"/>
        </g>
      </g>
      <g id="Grupo_3411" data-name="Grupo 3411" transform="translate(152.754 20.012)">
        <g id="Grupo_3410" data-name="Grupo 3410">
          <path id="Caminho_1652" data-name="Caminho 1652" d="M187.129,136.337c10.45,2.522,20.95-.526,31.169-2.7a70.9,70.9,0,0,1,16.216-1.864,56.923,56.923,0,0,1,8.234.785c2.489.417,5.12,1.465,7.645,1.436a.554.554,0,0,0,.277-1.024c-1.965-1.384-4.8-1.758-7.121-2.175a54.93,54.93,0,0,0-7.51-.809,65.686,65.686,0,0,0-15.77,1.506c-10.834,2.214-21.709,5.815-32.885,3.925-.594-.1-.863.775-.254.92Z" transform="translate(-186.784 -129.946)" fill="#fff"/>
        </g>
      </g>
      <g id="Grupo_3413" data-name="Grupo 3413" transform="translate(156.674 23.182)">
        <g id="Grupo_3412" data-name="Grupo 3412">
          <path id="Caminho_1653" data-name="Caminho 1653" d="M188.514,135.286c9,5.13,19.265,8.239,29.684,7.946a46.6,46.6,0,0,0,15.394-3.189,76.619,76.619,0,0,0,7.225-3.23,66.058,66.058,0,0,0,7.251-3.964c.765-.521.3-2.022-.679-1.61-4.7,1.978-9.032,4.755-13.781,6.665a46.215,46.215,0,0,1-15.127,3.445c-10.23.482-20.338-2.522-29.525-6.813-.5-.238-.936.467-.441.749Z" transform="translate(-188.296 -131.169)" fill="#fff"/>
        </g>
      </g>
      <g id="Grupo_3415" data-name="Grupo 3415" transform="translate(155.559 23.386)">
        <g id="Grupo_3414" data-name="Grupo 3414">
          <path id="Caminho_1654" data-name="Caminho 1654" d="M188.229,135.654c8.677,3.3,18.31,3.909,27.5,3.147,9.1-.757,18.671-2.67,27.016-6.437.638-.288.176-1.26-.464-1.1-4.384,1.11-8.7,2.507-13.107,3.559a99.363,99.363,0,0,1-13.735,2.315,72.969,72.969,0,0,1-26.923-2.507c-.669-.187-.907.785-.283,1.021Z" transform="translate(-187.866 -131.247)" fill="#fff"/>
        </g>
      </g>
      <g id="Grupo_3417" data-name="Grupo 3417" transform="translate(226.922 3.489)">
        <g id="Grupo_3416" data-name="Grupo 3416">
          <path id="Caminho_1655" data-name="Caminho 1655" d="M215.852,162.5c12.765.809,26.007.01,38.011-4.742a72.808,72.808,0,0,0,26.5-18.119c4.119-4.443,8.013-9.475,10.448-15.057a.674.674,0,0,0-1.164-.679,102.149,102.149,0,0,1-9.2,13.05,70.84,70.84,0,0,1-41.635,23.293c-7.591,1.273-15.293,1.32-22.966,1.3a.476.476,0,0,0,0,.951Z" transform="translate(-215.393 -123.572)" fill="#fff"/>
        </g>
      </g>
      <g id="Grupo_3419" data-name="Grupo 3419" transform="translate(230.594 3.05)">
        <g id="Grupo_3418" data-name="Grupo 3418">
          <path id="Caminho_1656" data-name="Caminho 1656" d="M217.394,161.735c9.468-3.99,17.766-10.007,26.376-15.508a187.553,187.553,0,0,1,28.323-14.665q4.207-1.769,8.472-3.409a80.042,80.042,0,0,0,8.252-3.269c.83-.433.241-1.654-.614-1.46a55.023,55.023,0,0,0-7.58,2.694q-3.757,1.462-7.479,3.007c-4.843,2.022-9.636,4.171-14.328,6.523-9.382,4.7-17.992,10.507-26.674,16.364a116.626,116.626,0,0,1-15.1,8.871c-.474.223-.132,1.058.358.853Z" transform="translate(-216.809 -123.403)" fill="#fff"/>
        </g>
      </g>
    </g>
    <g id="Grupo_3491" data-name="Grupo 3491" transform="translate(20.073 122.226)">
      <g id="Grupo_3422" data-name="Grupo 3422" transform="translate(14.388 14.098)">
        <g id="Grupo_3421" data-name="Grupo 3421">
          <path id="Caminho_1657" data-name="Caminho 1657" d="M303.876,137.149a6.045,6.045,0,0,1,6.909,1.071c1.478,1.452,1.379,3.93.977,5.817-1.216,5.727-6.116,9.263-11.472,10.813-10.569,3.059-22.578,1.2-33-1.558-21.53-5.693-41.386-17.128-63.7-19.884-12.185-1.5-24.582.039-36.312,3.508a126.746,126.746,0,0,0-17.528,6.7c-5.462,2.543-10.735,5.478-16.257,7.891a57.462,57.462,0,0,1-18.842,4.809,99.49,99.49,0,0,1-17.854-.49,148.314,148.314,0,0,1-21.206-4.13,172.272,172.272,0,0,1-25.131-8.358,75.43,75.43,0,0,1-19.949-11.962,19.427,19.427,0,0,1-3.243-3.331c-.63-.9-2.123-.041-1.485.868a32.558,32.558,0,0,0,7.01,7.562,66.363,66.363,0,0,0,10.619,6.494,149.967,149.967,0,0,0,25.72,9.737,174.169,174.169,0,0,0,24.053,5.273c11.275,1.576,23.267,1.955,34.236-1.5,6.118-1.929,11.84-4.884,17.548-7.762a147.049,147.049,0,0,1,18.427-7.977c12.459-4.275,25.722-6.453,38.884-5.063,23.724,2.5,44.673,15.386,67.686,20.711a82.089,82.089,0,0,0,17.019,2.232c5.582.1,11.51-.3,16.7-2.5,4.814-2.04,9.037-5.986,10.147-11.272.827-3.938-.1-8.148-4.215-9.615a7.853,7.853,0,0,0-6.445.71c-.8.433-.093,1.561.705,1.2Z" transform="translate(-25.623 -127.665)" fill="#fff"/>
        </g>
      </g>
      <g id="Grupo_3439" data-name="Grupo 3439" transform="translate(120.024 4.73)">
        <g id="Grupo_3424" data-name="Grupo 3424" transform="translate(14.624 2.438)">
          <g id="Grupo_3423" data-name="Grupo 3423">
            <path id="Caminho_1658" data-name="Caminho 1658" d="M125.35,138.58a136.207,136.207,0,0,0-25.575-10.857c-8.62-2.486-18.37-3.886-27.166-1.5-1.055.285-.588,1.758.441,1.6A61.972,61.972,0,0,1,99.9,129.566c8.628,2.468,16.708,6.388,24.929,9.908.6.257,1.13-.573.524-.894Z" transform="translate(-72.012 -124.991)" fill="#fff"/>
          </g>
        </g>
        <g id="Grupo_3426" data-name="Grupo 3426" transform="translate(8.842)">
          <g id="Grupo_3425" data-name="Grupo 3425">
            <path id="Caminho_1659" data-name="Caminho 1659" d="M77.151,128.316a11.552,11.552,0,0,0-2.981-2.948,10.8,10.8,0,0,0-1.828-.946,5.162,5.162,0,0,0-2.056-.371.512.512,0,0,0-.257.946c.537.285,1.06.578,1.613.835a11.325,11.325,0,0,1,1.61.913,10.511,10.511,0,0,1,2.556,2.357.8.8,0,0,0,1.063.28.783.783,0,0,0,.28-1.065Z" transform="translate(-69.781 -124.051)" fill="#fff"/>
          </g>
        </g>
        <g id="Grupo_3428" data-name="Grupo 3428" transform="translate(12.858 3.821)">
          <g id="Grupo_3427" data-name="Grupo 3427">
            <path id="Caminho_1660" data-name="Caminho 1660" d="M72.778,126.679c.034.14.065.28.091.42,0,.016.031.192.021.114s.01.1.013.114a6.028,6.028,0,0,1,.031.809c0,.143-.01.285-.023.43-.005.065-.013.127-.018.192-.018.161.021-.13-.005.029a7.666,7.666,0,0,1-.189.837c-.075.259-.174.513-.27.767-.021.054-.052.127-.01.031-.026.057-.052.117-.08.174-.062.13-.127.257-.2.384a10.289,10.289,0,0,0-.78,1.558.7.7,0,0,0,.856.855,4.59,4.59,0,0,0,2.357-3.251,7.637,7.637,0,0,0-.036-3.948.912.912,0,1,0-1.758.485Z" transform="translate(-71.331 -125.525)" fill="#fff"/>
          </g>
        </g>
        <g id="Grupo_3430" data-name="Grupo 3430" transform="translate(9.063 3.68)">
          <g id="Grupo_3429" data-name="Grupo 3429">
            <path id="Caminho_1661" data-name="Caminho 1661" d="M75.125,125.594a10.007,10.007,0,0,1-1.159.744c-.2.109-.407.213-.617.309l-.158.07c.07-.029.057-.023-.036.016s-.187.075-.28.109c-.415.153-.843.3-1.265.425-.438.132-.868.277-1.307.407a.6.6,0,0,0-.43.661.612.612,0,0,0,.591.521A5.619,5.619,0,0,0,72,128.826a6.269,6.269,0,0,0,1.371-.368,10.641,10.641,0,0,0,2.6-1.428.854.854,0,0,0,.3-1.135.836.836,0,0,0-1.136-.3Z" transform="translate(-69.867 -125.47)" fill="#fff"/>
          </g>
        </g>
        <g id="Grupo_3432" data-name="Grupo 3432" transform="translate(7.787 2.263)">
          <g id="Grupo_3431" data-name="Grupo 3431">
            <path id="Caminho_1662" data-name="Caminho 1662" d="M76.539,126.322a14.9,14.9,0,0,0-3.217-1.125,12.329,12.329,0,0,0-1.768-.264,4.587,4.587,0,0,0-1.714.251.659.659,0,0,0,0,1.26,10.479,10.479,0,0,0,1.6.324c.516.054.923.088,1.395.171a12.961,12.961,0,0,1,2.849.83.867.867,0,0,0,1.148-.3.839.839,0,0,0-.3-1.146Z" transform="translate(-69.374 -124.924)" fill="#fff"/>
          </g>
        </g>
        <g id="Grupo_3434" data-name="Grupo 3434" transform="translate(10.444 4.385)">
          <g id="Grupo_3433" data-name="Grupo 3433">
            <path id="Caminho_1663" data-name="Caminho 1663" d="M73.605,126.34c-.041.109-.086.218-.127.327-.052.132.075-.171-.023.054l-.062.143c-.1.213-.2.423-.309.63a11.56,11.56,0,0,1-.728,1.2c-.06.086-.119.171-.181.254l-.117.156c-.08.106.073-.086-.013.016-.15.179-.3.363-.451.537-.321.36-.627.728-.972,1.066a.776.776,0,0,0,0,1.086.791.791,0,0,0,1.086,0,8.163,8.163,0,0,0,1.1-1,13.142,13.142,0,0,0,.988-1.281,12.478,12.478,0,0,0,1.395-2.758.825.825,0,0,0-.573-1.008.849.849,0,0,0-1.011.576Z" transform="translate(-70.399 -125.742)" fill="#fff"/>
          </g>
        </g>
        <g id="Grupo_3436" data-name="Grupo 3436" transform="translate(0 0.953)">
          <g id="Grupo_3435" data-name="Grupo 3435">
            <path id="Caminho_1664" data-name="Caminho 1664" d="M77.3,124.441a12.23,12.23,0,0,0-6.269,1.327,9.8,9.8,0,0,0-4.628,4.418c-.166.371.306.853.62.477a15.98,15.98,0,0,1,4.428-4.021,11.341,11.341,0,0,1,5.851-1.431c.5.013.487-.741,0-.77Z" transform="translate(-66.371 -124.418)" fill="#fff"/>
          </g>
        </g>
        <g id="Grupo_3438" data-name="Grupo 3438" transform="translate(0.202 6.401)">
          <g id="Grupo_3437" data-name="Grupo 3437">
            <path id="Caminho_1665" data-name="Caminho 1665" d="M79.6,130.372a10.012,10.012,0,0,1-6.271.773,14.36,14.36,0,0,1-2.841-.915,11.957,11.957,0,0,1-1.491-.749c-.226-.135-.454-.275-.666-.43-.047-.034-.819-.69-.381-.791.329-.078.189-.573-.14-.506a.488.488,0,0,1-.581-.684c.213-.415-.415-.783-.627-.366a1.074,1.074,0,0,0,1.41,1.53l-.264-.451a1.14,1.14,0,0,0-.6,1.055c.091.521.687.9,1.076,1.177a10.534,10.534,0,0,0,3.8,1.753,11,11,0,0,0,7.837-.946c.3-.163.036-.594-.262-.448Z" transform="translate(-66.449 -126.52)" fill="#fff"/>
          </g>
        </g>
      </g>
      <g id="Grupo_3456" data-name="Grupo 3456" transform="translate(155.063 20.905)">
        <g id="Grupo_3441" data-name="Grupo 3441" transform="translate(13.321)">
          <g id="Grupo_3440" data-name="Grupo 3440">
            <path id="Caminho_1666" data-name="Caminho 1666" d="M108.8,130.533c-5.527,10.048-13.654,19.277-23.4,25.359-.76.474-.27,1.882.64,1.517a24.688,24.688,0,0,0,6.652-4.386,68.923,68.923,0,0,0,7.02-7.01c3.951-4.506,7.814-9.465,10.038-15.078.22-.552-.669-.907-.946-.4Z" transform="translate(-85.025 -130.29)" fill="#fff"/>
          </g>
        </g>
        <g id="Grupo_3443" data-name="Grupo 3443" transform="translate(11.358 25.333)">
          <g id="Grupo_3442" data-name="Grupo 3442">
            <path id="Caminho_1667" data-name="Caminho 1667" d="M86.205,140.84a10.672,10.672,0,0,1-.5,3.534,33.754,33.754,0,0,1-1.382,3.324.511.511,0,0,0,.8.617,7.041,7.041,0,0,0,2.165-3.443,11,11,0,0,0,.477-4.031.8.8,0,0,0-.778-.778.787.787,0,0,0-.778.778Z" transform="translate(-84.267 -140.062)" fill="#fff"/>
          </g>
        </g>
        <g id="Grupo_3445" data-name="Grupo 3445" transform="translate(7.862 21.62)">
          <g id="Grupo_3444" data-name="Grupo 3444">
            <path id="Caminho_1668" data-name="Caminho 1668" d="M89.594,142.822a7.51,7.51,0,0,0-2.427-3.018,6.844,6.844,0,0,0-1.693-.913,3.268,3.268,0,0,0-2.058-.158.7.7,0,0,0-.166,1.27,5.018,5.018,0,0,0,.863.4c.073.029.143.054.213.083-.117-.049-.062-.026.021.013.179.083.36.158.542.233-.119-.049-.083-.036.013.01.057.026.114.054.171.083.124.062.249.127.368.2.241.14.482.283.71.443l.156.111c.2.15-.15-.127.044.036.1.083.194.163.288.249a7.066,7.066,0,0,1,.581.6c.041.049.08.1.122.148.073.083-.086-.124.016.021.088.124.176.249.259.379a6.116,6.116,0,0,1,.4.736.917.917,0,0,0,1.25.327.945.945,0,0,0,.329-1.252Z" transform="translate(-82.919 -138.63)" fill="#fff"/>
          </g>
        </g>
        <g id="Grupo_3447" data-name="Grupo 3447" transform="translate(7.764 25.89)">
          <g id="Grupo_3446" data-name="Grupo 3446">
            <path id="Caminho_1669" data-name="Caminho 1669" d="M88.654,140.277a10.727,10.727,0,0,0-2.974.5,6.292,6.292,0,0,0-2.626,1.579.6.6,0,0,0,.586,1.006c.213-.088.425-.163.64-.238.145-.052.288-.114.428-.176l.137-.06c.42-.176.856-.332,1.286-.477a10.007,10.007,0,0,1,1.288-.337c.1-.018.2-.036.306-.052s.117-.018.041-.008c.06-.008.117-.016.176-.021.236-.026.472-.042.71-.052a.831.831,0,0,0,0-1.662Z" transform="translate(-82.881 -140.277)" fill="#fff"/>
          </g>
        </g>
        <g id="Grupo_3449" data-name="Grupo 3449" transform="translate(8.809 26.127)">
          <g id="Grupo_3448" data-name="Grupo 3448">
            <path id="Caminho_1670" data-name="Caminho 1670" d="M87.206,140.774a13.937,13.937,0,0,1-.822,1.361c-.067.1-.137.2-.207.293-.039.054-.078.106-.119.161-.013.016-.143.184-.075.1s-.065.08-.078.1c-.041.052-.083.1-.124.153-.086.1-.171.2-.257.3-.34.389-.7.757-1.076,1.115a10.414,10.414,0,0,0-1.063,1.3.659.659,0,0,0,.739.959,8.3,8.3,0,0,0,.814-.342,3.95,3.95,0,0,0,.788-.583,10.971,10.971,0,0,0,1.1-1.2,14.812,14.812,0,0,0,1.828-2.867.84.84,0,1,0-1.452-.845Z" transform="translate(-83.284 -140.368)" fill="#fff"/>
          </g>
        </g>
        <g id="Grupo_3451" data-name="Grupo 3451" transform="translate(6.636 23.969)">
          <g id="Grupo_3450" data-name="Grupo 3450">
            <path id="Caminho_1671" data-name="Caminho 1671" d="M89.1,141.237a11.3,11.3,0,0,0-5.885-1.7.767.767,0,0,0,0,1.535,12.56,12.56,0,0,1,5.058,1.581.82.82,0,0,0,.827-1.415Z" transform="translate(-82.446 -139.536)" fill="#fff"/>
          </g>
        </g>
        <g id="Grupo_3453" data-name="Grupo 3453" transform="translate(0.442 31.2)">
          <g id="Grupo_3452" data-name="Grupo 3452">
            <path id="Caminho_1672" data-name="Caminho 1672" d="M91.895,142.423a11.4,11.4,0,0,1-5.405,2.522,15.712,15.712,0,0,1-5.929-.345c-.415-.083-.723.506-.3.721a9.849,9.849,0,0,0,6.4.576,12.25,12.25,0,0,0,5.779-2.929c.368-.337-.171-.861-.542-.544Z" transform="translate(-80.057 -142.325)" fill="#fff"/>
          </g>
        </g>
        <g id="Grupo_3455" data-name="Grupo 3455" transform="translate(0 22.614)">
          <g id="Grupo_3454" data-name="Grupo 3454">
            <path id="Caminho_1673" data-name="Caminho 1673" d="M88.638,139.018a10.888,10.888,0,0,0-6.556,4.026,10.694,10.694,0,0,0-1.833,3.4,3.138,3.138,0,0,0-.262,2.03,1.109,1.109,0,0,0,1.177.493c.329-.078.189-.578-.14-.506a1.067,1.067,0,0,0-.163,2.043c.425.181.8-.443.366-.627a.5.5,0,0,1,0-.938l-.264-.451c-.36.184-.166-.874-.158-.907.067-.254.158-.5.249-.749a11.636,11.636,0,0,1,.677-1.473,13.972,13.972,0,0,1,1.729-2.6,10.059,10.059,0,0,1,5.315-3.235c.334-.075.192-.557-.132-.5Z" transform="translate(-79.886 -139.013)" fill="#fff"/>
          </g>
        </g>
      </g>
      <g id="Grupo_3458" data-name="Grupo 3458" transform="translate(238.791 35.49)">
        <g id="Grupo_3457" data-name="Grupo 3457">
          <path id="Caminho_1674" data-name="Caminho 1674" d="M112.338,137.1A141.233,141.233,0,0,0,130.2,156.144c6.4,5.664,13.273,11.091,20.908,15a.509.509,0,0,0,.513-.879c-7.023-5.071-14.144-9.932-20.651-15.677a155.739,155.739,0,0,1-17.678-18.44c-.552-.679-1.478.28-.954.954Z" transform="translate(-112.183 -135.916)" fill="#fff"/>
        </g>
      </g>
      <g id="Grupo_3460" data-name="Grupo 3460" transform="translate(244.271 41.313)">
        <g id="Grupo_3459" data-name="Grupo 3459">
          <path id="Caminho_1675" data-name="Caminho 1675" d="M114.766,139.5a72.851,72.851,0,0,1,24.714,14.538,82.827,82.827,0,0,1,9.828,10.264c3.023,3.764,5.276,8.021,8.164,11.855.327.433,1.141.21.949-.4-1.431-4.526-4.589-8.659-7.49-12.356A78.341,78.341,0,0,0,140.6,152.549a69.636,69.636,0,0,0-25.473-14.354c-.84-.251-1.179,1.027-.36,1.3Z" transform="translate(-114.297 -138.162)" fill="#fff"/>
        </g>
      </g>
      <g id="Grupo_3462" data-name="Grupo 3462" transform="translate(243.423 41.563)">
        <g id="Grupo_3461" data-name="Grupo 3461">
          <path id="Caminho_1676" data-name="Caminho 1676" d="M113.97,138.708c.054,2.113,1.641,4.583,2.561,6.445a60.2,60.2,0,0,0,3.839,6.722,41.787,41.787,0,0,0,10.507,10.684,140.289,140.289,0,0,0,13.551,8.726,65.407,65.407,0,0,0,6.862,3.365c2.056.853,4.978,2.336,7.241,2.084a.566.566,0,0,0,.283-1.045,13.573,13.573,0,0,0-3.36-1.229c-1.19-.4-2.367-.845-3.521-1.34a64.176,64.176,0,0,1-6.624-3.349c-4.4-2.522-8.654-5.374-12.8-8.288a42.048,42.048,0,0,1-10.787-10.715,60.064,60.064,0,0,1-3.666-6.186q-.832-1.6-1.62-3.222a10.152,10.152,0,0,0-1.688-2.976.46.46,0,0,0-.775.324Z" transform="translate(-113.97 -138.259)" fill="#fff"/>
        </g>
      </g>
      <g id="Grupo_3464" data-name="Grupo 3464" transform="translate(221.907 8.426)">
        <g id="Grupo_3463" data-name="Grupo 3463">
          <path id="Caminho_1677" data-name="Caminho 1677" d="M141.175,125.62A59.791,59.791,0,0,1,125.4,138.486a57.381,57.381,0,0,1-9.24,4.114c-1.623.557-3.274,1.037-4.941,1.447-1.649.4-3.432.544-5.029,1.1a.74.74,0,0,0,.2,1.447,19.75,19.75,0,0,0,5-.962c1.745-.461,3.464-1.008,5.159-1.628a59.714,59.714,0,0,0,9.255-4.319,57.36,57.36,0,0,0,15.99-13.452c.347-.425-.241-1.04-.617-.614Z" transform="translate(-105.671 -125.477)" fill="#fff"/>
        </g>
      </g>
      <g id="Grupo_3466" data-name="Grupo 3466" transform="translate(225.12 0.152)">
        <g id="Grupo_3465" data-name="Grupo 3465">
          <path id="Caminho_1678" data-name="Caminho 1678" d="M107.164,151.572a25.534,25.534,0,0,0,7.225.161,40.1,40.1,0,0,0,6.629-1.509,52.542,52.542,0,0,0,13.333-5.986c3.946-2.6,7.031-6.167,10.059-9.742q2.543-3,5.089-6.007c1.444-1.706,3.521-3.6,4.329-5.711.127-.334-.3-.6-.578-.446-1.921,1.1-3.412,3.4-4.845,5.06q-2.255,2.625-4.516,5.25c-3.028,3.518-6.02,7.215-9.869,9.877-7.554,5.226-17.618,8.122-26.762,8.358-.378.013-.5.635-.093.695Z" transform="translate(-106.91 -122.285)" fill="#fff"/>
        </g>
      </g>
      <g id="Grupo_3468" data-name="Grupo 3468" transform="translate(220.546)">
        <g id="Grupo_3467" data-name="Grupo 3467">
          <path id="Caminho_1679" data-name="Caminho 1679" d="M156.1,122.233c-10.24,1.7-20.644,4.179-29.8,9.219a49.2,49.2,0,0,0-11.212,8.309c-3.347,3.37-6.04,7.114-9.784,10.092-.384.306.031.962.474.814,4.106-1.361,6.714-5.387,9.486-8.438a46.376,46.376,0,0,1,11.443-9.006c9.185-5.237,19.438-7.7,29.606-10.23.5-.124.283-.843-.21-.76Z" transform="translate(-105.146 -122.226)" fill="#fff"/>
        </g>
      </g>
      <g id="Grupo_3470" data-name="Grupo 3470" transform="translate(193.52 20.58)">
        <g id="Grupo_3469" data-name="Grupo 3469" transform="translate(0)">
          <path id="Caminho_1680" data-name="Caminho 1680" d="M95.007,131.254c8.768,4.1,16.675,9.755,22.495,17.587,5.164,6.948,8.436,16.392,16.382,20.74.358.2.78-.3.454-.586-7.114-6.294-10.6-15.124-16.382-22.453a49.484,49.484,0,0,0-22.5-16.348c-.614-.21-1.047.78-.449,1.06Z" transform="translate(-94.721 -130.165)" fill="#fff"/>
        </g>
      </g>
      <g id="Grupo_3472" data-name="Grupo 3472" transform="translate(202.024 24.589)">
        <g id="Grupo_3471" data-name="Grupo 3471">
          <path id="Caminho_1681" data-name="Caminho 1681" d="M98.486,133.056c9.973,2.769,18.139,9.566,24.641,17.413a126.281,126.281,0,0,1,9.716,13.854c1.423,2.281,2.782,4.607,4.226,6.875a14.533,14.533,0,0,0,4.692,5.032.583.583,0,0,0,.7-.913c-3.85-3.9-6.32-9.035-9.234-13.623A116.3,116.3,0,0,0,123.4,148.11c-6.5-7.565-14.78-13.844-24.553-16.374a.685.685,0,0,0-.363,1.32Z" transform="translate(-98.001 -131.711)" fill="#fff"/>
        </g>
      </g>
      <g id="Grupo_3474" data-name="Grupo 3474" transform="translate(199.562 23.357)">
        <g id="Grupo_3473" data-name="Grupo 3473" transform="translate(0)">
          <path id="Caminho_1682" data-name="Caminho 1682" d="M143.554,176.145a57.255,57.255,0,0,1-29.614-14.717,54.634,54.634,0,0,1-9.771-12.589c-2.779-4.933-5.706-11.072-5.514-16.843.034-1.019-1.519-1.006-1.576,0-.27,4.687,1.488,9.351,3.383,13.564a55.765,55.765,0,0,0,6.883,11.378,54.637,54.637,0,0,0,21.294,16.493,51.82,51.82,0,0,0,14.746,3.938c.695.078.858-1.1.169-1.224Z" transform="translate(-97.051 -131.236)" fill="#fff"/>
        </g>
      </g>
      <g id="Grupo_3476" data-name="Grupo 3476" transform="translate(122.669 21.708)">
        <g id="Grupo_3475" data-name="Grupo 3475">
          <path id="Caminho_1683" data-name="Caminho 1683" d="M108.933,130.647c-4.285,1.693-6.572,6.269-8.664,10.085-2.675,4.879-4.928,9.976-7.731,14.785-5.182,8.895-13.216,17.458-24.328,17.2-1.1-.026-1.081,1.625,0,1.7,10.279.721,18.611-6.644,23.864-14.754a137.964,137.964,0,0,0,7.632-14.422c1.229-2.5,2.478-5,3.886-7.409,1.4-2.4,3.01-4.884,5.67-6,.705-.3.412-1.473-.329-1.18Z" transform="translate(-67.391 -130.6)" fill="#fff"/>
        </g>
      </g>
      <g id="Grupo_3478" data-name="Grupo 3478" transform="translate(122.534 22.984)">
        <g id="Grupo_3477" data-name="Grupo 3477">
          <path id="Caminho_1684" data-name="Caminho 1684" d="M104.86,131.167c-8.483,4.685-17.019,9.748-24.05,16.5a46.556,46.556,0,0,0-8.783,11.472,45.424,45.424,0,0,0-3.01,6.937,24.591,24.591,0,0,0-1.677,7.355.813.813,0,0,0,1.589.215c.778-2.3,1.086-4.76,1.869-7.08a42.811,42.811,0,0,1,3.1-6.992,49.076,49.076,0,0,1,8.737-11.207c6.717-6.577,14.847-11.329,22.788-16.247a.551.551,0,0,0-.557-.949Z" transform="translate(-67.339 -131.092)" fill="#fff"/>
        </g>
      </g>
      <g id="Grupo_3480" data-name="Grupo 3480" transform="translate(132.264 24.134)">
        <g id="Grupo_3479" data-name="Grupo 3479" transform="translate(0)">
          <path id="Caminho_1685" data-name="Caminho 1685" d="M97.968,131.638a194.984,194.984,0,0,0-14.624,15.41q-3.185,3.834-6.162,7.829a62.959,62.959,0,0,0-6.03,9.092c-.27.537.441,1.187.879.679,2.16-2.5,3.977-5.289,5.934-7.951q3.259-4.437,6.722-8.721c4.4-5.431,8.9-10.831,13.779-15.84a.352.352,0,0,0-.5-.5Z" transform="translate(-71.092 -131.536)" fill="#fff"/>
        </g>
      </g>
      <g id="Grupo_3482" data-name="Grupo 3482" transform="translate(86.108 20.014)">
        <g id="Grupo_3481" data-name="Grupo 3481">
          <path id="Caminho_1686" data-name="Caminho 1686" d="M116.829,135.418c-11.176,1.89-22.051-1.708-32.885-3.925a65.856,65.856,0,0,0-15.464-1.517,54.532,54.532,0,0,0-7.516.767c-2.408.42-5.385.791-7.422,2.227a.554.554,0,0,0,.277,1.024c2.432.026,4.952-.972,7.344-1.387a56.549,56.549,0,0,1,8.231-.83,70.518,70.518,0,0,1,16.522,1.859c10.219,2.175,20.719,5.224,31.169,2.7.6-.148.337-1.021-.257-.92Z" transform="translate(-53.288 -129.947)" fill="#fff"/>
        </g>
      </g>
      <g id="Grupo_3484" data-name="Grupo 3484" transform="translate(86.171 23.181)">
        <g id="Grupo_3483" data-name="Grupo 3483">
          <path id="Caminho_1687" data-name="Caminho 1687" d="M112.808,134.535c-9.19,4.29-19.3,7.293-29.525,6.813a46.067,46.067,0,0,1-14.855-3.336c-4.853-1.926-9.265-4.757-14.054-6.774-.97-.407-1.452,1.084-.679,1.61a65.4,65.4,0,0,0,7.251,3.964,75.3,75.3,0,0,0,7.225,3.23,46.589,46.589,0,0,0,15.394,3.189c10.422.293,20.688-2.815,29.684-7.946.5-.28.06-.985-.441-.749Z" transform="translate(-53.312 -131.168)" fill="#fff"/>
        </g>
      </g>
      <g id="Grupo_3486" data-name="Grupo 3486" transform="translate(92.26 23.388)">
        <g id="Grupo_3485" data-name="Grupo 3485">
          <path id="Caminho_1688" data-name="Caminho 1688" d="M110.2,134.634a73.078,73.078,0,0,1-26.923,2.507,98.913,98.913,0,0,1-13.735-2.315c-4.41-1.053-8.724-2.452-13.107-3.559-.633-.161-1.107.809-.464,1.1,8.345,3.764,17.914,5.68,27.016,6.437,9.185.765,18.821.15,27.5-3.147.62-.238.384-1.211-.285-1.021Z" transform="translate(-55.661 -131.248)" fill="#fff"/>
        </g>
      </g>
      <g id="Grupo_3488" data-name="Grupo 3488" transform="translate(0.593 3.488)">
        <g id="Grupo_3487" data-name="Grupo 3487">
          <path id="Caminho_1689" data-name="Caminho 1689" d="M95.328,161.549c-12.672.031-25.175-.555-37.111-5.211a70.966,70.966,0,0,1-26.176-17.922A97.136,97.136,0,0,1,21.533,123.9a.674.674,0,0,0-1.164.679A53.367,53.367,0,0,0,29.339,138a72.823,72.823,0,0,0,11.915,10.909A70.151,70.151,0,0,0,71.97,161.668a108.661,108.661,0,0,0,23.361.835.477.477,0,0,0,0-.954Z" transform="translate(-20.302 -123.572)" fill="#fff"/>
        </g>
      </g>
      <g id="Grupo_3490" data-name="Grupo 3490" transform="translate(0 3.051)">
        <g id="Grupo_3489" data-name="Grupo 3489">
          <path id="Caminho_1690" data-name="Caminho 1690" d="M92.254,160.882c-9.392-4.454-17.688-10.782-26.365-16.428A180.434,180.434,0,0,0,37.748,129.8q-3.959-1.68-7.964-3.246a62.224,62.224,0,0,0-8.7-3.129c-.848-.192-1.452,1.024-.614,1.46a67.252,67.252,0,0,0,7.137,2.841q3.764,1.439,7.492,2.968c5.076,2.084,10.09,4.324,15,6.782,9.385,4.7,17.914,10.588,26.767,16.167a104.475,104.475,0,0,0,15.028,8.1c.482.2.835-.63.358-.855Z" transform="translate(-20.073 -123.403)" fill="#fff"/>
        </g>
      </g>
    </g>
  </g>
</svg>
